<svg class="img-fluid" id="outputsvg" xmlns="http://www.w3.org/2000/svg" style="transform: none; transform-origin: 50% 50%; cursor: move;" width="1298" height="874" viewBox="0 0 12980 8740"><g id="l7EY2GubLOdlviVwyZq1XaZ" fill="rgb(180,216,240)" style="transform: none;"><g><path id="p17Nfn2mE" d="M10540 6050 c0 -5 -13 -10 -30 -10 -21 0 -30 -5 -30 -16 0 -8 -6 -22 -14 -30 -24 -23 -46 -17 -46 12 l0 26 -67 -7 c-70 -7 -113 -33 -113 -70 0 -8 -9 -15 -20 -15 -16 0 -20 -7 -20 -30 0 -16 -4 -30 -10 -30 -15 0 -12 -47 3 -53 10 -4 10 -6 0 -6 -7 -1 -13 -7 -13 -15 0 -8 6 -17 13 -19 6 -3 2 -6 -10 -6 -12 -1 -25 -5 -28 -11 -8 -13 -65 -13 -65 -1 0 5 6 12 13 14 7 3 5 6 -5 6 -12 1 -18 -6 -18 -19 0 -11 6 -20 14 -20 9 0 12 -7 9 -20 -3 -11 -1 -20 5 -20 5 0 13 -7 16 -16 6 -14 0 -16 -43 -12 -27 3 -56 1 -63 -4 -10 -7 -8 -8 5 -4 11 3 17 0 17 -9 0 -8 9 -15 20 -15 11 0 20 -4 20 -10 0 -5 15 -11 33 -11 17 -1 4 -5 -31 -9 -66 -7 -110 -30 -58 -30 28 0 56 -20 56 -39 0 -6 -7 -11 -15 -11 -11 0 -15 -12 -15 -45 0 -45 0 -45 35 -45 31 0 35 3 35 25 0 43 17 52 72 41 37 -8 57 -7 81 3 86 36 277 -10 277 -66 0 -7 7 -13 15 -13 9 0 19 -8 22 -17 6 -16 48 -59 98 -101 39 -33 72 -42 155 -42 90 0 190 28 248 68 59 41 103 35 164 -22 20 -19 31 -46 45 -106 11 -48 23 -80 30 -80 7 0 13 6 13 14 0 8 6 16 13 19 9 3 9 13 -1 48 -15 51 -25 100 -16 82 3 -7 18 -13 32 -13 15 0 22 4 16 8 -6 4 -16 17 -23 30 -11 22 -11 22 44 22 30 0 55 -4 55 -10 0 -5 9 -10 20 -10 11 0 20 -4 20 -10 0 -5 10 -10 23 -11 12 0 16 -3 10 -6 -22 -8 -14 -28 16 -41 21 -9 28 -18 24 -32 -3 -12 0 -20 7 -20 18 0 4 66 -25 115 -31 54 -67 86 -107 95 l-33 8 43 1 c23 1 42 -3 42 -9 0 -5 9 -10 21 -10 11 0 27 -7 35 -15 9 -8 11 -15 5 -15 -6 0 -11 -7 -11 -15 0 -10 10 -15 29 -15 24 0 28 -3 24 -20 -4 -16 0 -20 21 -20 l26 0 -21 43 c-12 23 -28 50 -37 60 -8 9 -11 17 -5 17 5 0 18 -9 28 -20 10 -11 22 -20 27 -20 17 0 -54 82 -96 111 -23 16 -45 32 -51 36 -5 5 -20 8 -32 9 -84 2 -103 5 -103 15 0 8 16 10 50 6 63 -8 74 7 15 20 -26 6 -46 6 -47 1 -2 -5 -16 -4 -33 2 -22 8 -26 13 -16 19 10 7 3 14 -25 27 -41 19 -56 33 -48 45 2 4 0 10 -6 14 -5 3 -10 1 -10 -6 0 -7 -10 -3 -23 9 -13 12 -29 22 -35 22 -13 0 -15 11 -13 47 2 13 -5 24 -16 27 -10 3 -41 28 -69 54 -60 57 -113 96 -120 89 -3 -3 -27 6 -52 19 -29 16 -55 23 -69 19 -13 -3 -23 -1 -23 5 0 13 -53 40 -79 40 -10 0 -21 -5 -23 -12 -3 -9 -13 -8 -39 4 -19 9 -49 19 -66 23 -18 3 -35 11 -38 16 -8 12 -35 12 -35 -1z m-140 -100 c0 -5 -4 -10 -9 -10 -5 0 -16 -3 -25 -6 -11 -4 -16 -1 -16 10 0 10 9 16 25 16 14 0 25 -4 25 -10z m-200 -220 c0 -5 -9 -10 -20 -10 -11 0 -20 5 -20 10 0 6 9 10 20 10 11 0 20 -4 20 -10z m1300 -240 c0 -16 -7 -20 -35 -20 -43 0 -49 27 -7 33 15 2 30 5 35 6 4 0 7 -8 7 -19z"></path><path id="pOxkC4xSk" d="M7800 5650 c-12 -8 -9 -10 13 -10 15 0 27 5 27 10 0 13 -20 13 -40 0z"></path><path id="pzsMQvyV8" d="M7860 5652 c0 -5 -19 -19 -42 -32 -24 -13 -55 -32 -69 -43 -15 -10 -56 -27 -93 -37 -66 -19 -96 -38 -96 -61 0 -9 -18 -10 -72 -5 -40 4 -100 9 -132 12 -33 3 -63 7 -68 10 -18 11 -7 -23 12 -36 11 -8 20 -17 20 -21 0 -12 -93 -20 -101 -8 -5 8 -13 7 -30 -2 l-24 -13 30 -7 c24 -5 27 -7 13 -13 -10 -5 -18 -13 -18 -18 0 -7 20 -8 58 -3 69 10 163 7 217 -5 92 -22 360 -6 389 22 18 19 110 48 150 48 14 0 26 4 26 10 0 5 11 20 25 34 14 14 25 30 25 36 0 5 9 10 20 10 15 0 20 7 20 26 0 22 -2 25 -15 14 -12 -10 -15 -10 -15 0 0 9 -7 7 -20 -5 -19 -17 -20 -17 -21 1 -1 10 -1 25 0 32 3 18 -11 15 -49 -13 -38 -28 -60 -34 -36 -9 17 16 21 36 10 47 -13 13 -108 -48 -99 -63 3 -4 -2 -10 -10 -14 -11 -4 -15 2 -15 19 0 15 6 25 14 25 8 0 17 7 20 16 11 28 6 54 -9 54 -8 0 -15 -4 -15 -8z"></path><path id="pXISv38lY" d="M7940 5650 c0 -5 7 -10 15 -10 8 0 15 5 15 10 0 6 -7 10 -15 10 -8 0 -15 -4 -15 -10z"></path><path id="pz2QuON6m" d="M9961 5636 c12 -10 59 -15 59 -6 0 5 -14 10 -32 10 -17 0 -29 -2 -27 -4z"></path><path id="pGBLToDqN" d="M7710 5600 c-8 -5 -11 -12 -8 -16 4 -3 14 1 23 10 18 17 9 21 -15 6z"></path><path id="p1680cacaS" d="M11430 5290 c-12 -7 -11 -12 8 -28 12 -11 22 -27 22 -35 0 -11 5 -14 17 -10 11 4 12 8 5 11 -7 2 -12 12 -12 23 0 10 -4 19 -9 19 -5 0 -11 7 -13 15 -2 10 -7 12 -18 5z"></path><path id="pengRcnLN" d="M10072 3688 c-5 -7 -15 -31 -21 -53 -7 -28 -20 -46 -41 -58 -16 -10 -30 -24 -30 -30 0 -15 -55 -53 -100 -69 -70 -24 -98 -47 -114 -95 -16 -46 -21 -93 -11 -93 3 0 16 9 28 21 l22 20 6 -28 c4 -15 7 -21 8 -12 2 23 33 19 59 -8 20 -22 50 -24 37 -2 -4 5 -1 9 5 9 6 0 8 5 4 11 -5 9 3 10 30 5 20 -4 35 -3 34 2 -4 12 69 92 77 84 4 -4 6 -2 4 3 -4 16 13 49 33 63 10 7 18 23 18 35 0 31 20 100 27 93 4 -3 13 3 21 15 10 15 11 24 3 32 -15 15 -14 27 4 27 8 0 15 9 15 20 0 18 -7 20 -54 20 -31 0 -58 -5 -64 -12z"></path></g></g><g id="l3HQgfUHMsCCo4n7HnlxJhq" fill="rgb(199,213,228)" style="transform: none;"><g><path id="p4z1hGA28" d="M10044 4027 c-82 -84 -183 -238 -206 -315 -23 -76 -50 -133 -84 -179 -19 -24 -24 -44 -24 -87 l0 -56 35 0 c20 0 52 10 73 23 20 13 53 29 72 36 45 15 100 53 100 68 0 6 14 20 30 30 21 12 34 30 41 58 14 50 26 65 52 65 20 0 97 74 97 93 0 5 7 16 16 25 14 13 16 32 11 113 -7 142 -33 180 -119 178 -38 0 -49 -6 -94 -52z"></path></g></g><g id="l4HS05xVk3peq8HaBJBcR5j" fill="rgb(200,227,244)" style="transform: none;"><g><path id="pyDasWN3B" d="M8420 5680 c-25 -5 -67 -12 -94 -15 -27 -3 -54 -9 -61 -15 -6 -5 -15 -7 -18 -3 -4 3 -15 -1 -24 -9 -27 -23 -80 -48 -87 -41 -4 4 -13 -3 -22 -15 -8 -12 -22 -22 -31 -22 -17 0 -83 -65 -83 -82 0 -6 -7 -8 -14 -5 -19 8 -150 -35 -169 -55 -9 -9 -36 -16 -64 -18 -136 -5 -249 -2 -345 10 l-107 13 -85 -28 c-47 -16 -83 -31 -81 -35 2 -3 -12 -12 -31 -19 -19 -7 -32 -16 -29 -21 3 -5 -5 -12 -17 -15 -13 -4 -61 -21 -108 -38 -77 -28 -95 -30 -191 -28 -80 1 -125 8 -180 25 -58 19 -69 25 -49 28 17 4 14 5 -10 4 -19 0 -84 4 -145 8 -60 5 -121 10 -135 11 -37 3 -169 -13 -215 -26 -235 -63 -313 -108 -335 -190 -6 -22 -15 -39 -20 -39 -6 0 -10 -10 -10 -22 0 -13 -7 -32 -16 -43 -12 -16 -16 -17 -23 -6 -6 9 -4 19 5 28 8 8 15 22 16 31 0 9 2 28 3 42 1 14 5 40 9 58 5 20 4 32 -3 32 -14 0 -26 -22 -23 -42 2 -11 -3 -18 -12 -18 -9 0 -16 -6 -16 -12 -1 -29 -46 -64 -98 -76 -51 -11 -54 -11 -77 12 -13 14 -34 27 -45 31 -11 3 -20 11 -20 16 0 5 -5 9 -11 9 -5 0 -9 -8 -8 -17 3 -30 -1 -43 -11 -43 -5 0 -10 6 -10 14 0 8 -9 18 -20 21 -35 11 -24 35 16 35 31 0 35 2 24 15 -7 8 -19 15 -26 15 -8 0 -14 5 -14 10 0 6 -4 10 -10 10 -5 0 -10 -9 -10 -20 0 -11 -7 -20 -15 -20 -8 0 -15 4 -15 10 0 5 -30 32 -67 59 -38 28 -81 62 -98 76 -16 13 -64 35 -105 49 -107 35 -322 57 -336 35 -3 -5 -21 -9 -40 -9 -19 0 -34 -5 -34 -11 0 -5 -5 -7 -10 -4 -9 5 -43 -7 -221 -82 -38 -16 -57 -32 -111 -97 -51 -60 -133 -109 -185 -109 -24 0 -43 -4 -43 -9 0 -4 -43 -8 -95 -8 -52 0 -95 3 -95 8 0 4 -16 8 -36 9 -41 2 -165 42 -176 57 -3 5 -20 9 -37 8 -17 0 -31 4 -31 9 0 11 -127 12 -132 1 -5 -12 -117 -44 -130 -36 -6 4 -8 3 -5 -3 9 -15 -120 -55 -177 -55 -37 1 -47 -2 -36 -9 12 -8 10 -10 -8 -6 -31 7 -107 -23 -90 -35 9 -6 6 -7 -7 -4 -14 4 -32 -4 -55 -25 -19 -17 -26 -25 -15 -18 18 13 19 13 6 -3 -7 -10 -17 -16 -21 -13 -4 2 -15 -4 -25 -15 -11 -13 -14 -20 -6 -20 7 0 9 -5 6 -10 -4 -6 -11 -8 -16 -5 -8 6 -13 -8 -10 -27 0 -5 -4 -8 -9 -8 -5 0 -9 -3 -9 -7 3 -21 -2 -33 -12 -27 -7 4 -9 0 -5 -14 5 -14 1 -28 -11 -40 -10 -10 -19 -24 -21 -31 -4 -21 -34 -61 -45 -61 -6 0 -8 -3 -4 -6 3 -3 -2 -25 -12 -47 -10 -23 -26 -73 -36 -112 -23 -88 -85 -208 -132 -257 -20 -21 -32 -38 -28 -38 4 0 -5 -16 -19 -35 -56 -73 -77 -139 -90 -292 l-13 -143 -52 -84 c-50 -82 -65 -136 -40 -151 5 -4 20 -30 33 -58 30 -68 65 -99 209 -182 42 -25 77 -49 77 -53 0 -5 27 -36 60 -71 83 -85 154 -118 275 -125 135 -7 153 -14 181 -63 37 -64 102 -131 141 -144 23 -7 75 -10 147 -7 115 5 146 12 146 32 0 6 23 17 50 23 28 7 58 19 66 28 21 21 58 28 106 22 43 -6 55 -16 64 -57 8 -36 19 -55 34 -55 7 0 19 -16 25 -35 10 -29 17 -35 41 -35 29 0 29 0 43 -93 11 -77 16 -92 29 -87 18 7 32 -11 32 -42 0 -18 6 -23 24 -23 37 0 56 -10 56 -30 0 -10 7 -21 16 -24 9 -3 86 -6 172 -6 86 0 163 -4 170 -9 8 -5 11 -17 7 -33 -6 -24 -3 -26 32 -31 71 -11 103 -19 103 -28 0 -5 -10 -9 -22 -10 -22 0 -22 -1 -3 -9 27 -12 92 -12 99 -1 4 5 0 11 -6 13 -21 7 33 31 72 32 30 1 35 4 36 26 2 46 4 49 31 52 19 2 29 10 33 28 4 16 12 24 23 22 9 -2 27 3 39 10 13 6 34 11 46 9 20 -2 23 1 17 18 -7 22 18 41 55 41 16 0 20 4 15 19 -7 23 17 31 102 31 74 0 93 6 93 30 0 12 9 20 22 22 19 2 24 11 29 50 8 51 28 98 29 65 0 -35 19 -6 26 41 8 58 17 70 48 65 18 -4 26 0 31 16 9 28 55 29 62 1 3 -11 15 -22 27 -24 11 -3 41 -8 66 -13 24 -4 42 -11 40 -15 -3 -3 5 -17 16 -30 12 -13 26 -32 32 -43 6 -12 30 -26 58 -34 27 -8 43 -16 36 -19 -7 -2 -12 -9 -12 -17 0 -14 52 -25 121 -25 67 0 109 -22 154 -79 39 -50 83 -81 218 -155 55 -30 67 -41 67 -62 0 -16 8 -27 23 -33 13 -5 31 -21 40 -35 10 -14 26 -26 37 -26 23 0 153 -83 193 -123 38 -39 62 -97 81 -191 10 -49 27 -99 48 -135 29 -49 42 -60 102 -89 87 -42 186 -53 488 -56 l228 -2 107 -54 108 -53 171 -2 c133 -2 179 -6 203 -18 17 -9 29 -12 26 -8 -2 5 25 11 60 15 89 9 101 15 174 85 35 33 67 61 72 61 5 0 9 6 9 14 0 7 10 24 23 37 12 14 27 37 34 51 9 21 20 27 49 30 34 3 38 7 58 58 14 36 29 56 43 60 11 3 45 34 75 68 73 84 119 111 221 127 45 7 104 24 130 38 48 24 120 99 132 137 4 11 13 20 21 20 20 0 31 31 49 134 8 49 18 92 22 95 5 3 25 21 45 40 26 24 51 36 80 40 l43 6 8 63 c5 34 13 62 18 62 5 0 9 -6 9 -12 0 -10 3 -9 9 1 5 7 12 61 16 120 8 119 37 209 74 226 12 5 24 19 27 30 16 58 27 75 49 75 19 0 27 10 40 48 10 26 21 56 26 67 4 11 15 37 23 58 8 20 20 37 25 37 6 0 11 4 11 8 0 5 -18 7 -40 5 -31 -2 -40 1 -40 13 0 9 -6 14 -12 12 -16 -5 -37 -63 -38 -103 0 -34 -7 -46 -35 -61 -11 -6 -26 -29 -33 -50 -7 -21 -21 -46 -31 -54 -25 -20 -68 -119 -76 -175 -4 -26 -13 -45 -20 -45 -16 0 -25 -31 -25 -95 -2 -91 -13 -129 -39 -135 -23 -5 -34 -18 -44 -51 -3 -9 -21 -19 -41 -23 -20 -4 -36 -12 -36 -19 0 -7 -13 -19 -29 -28 -20 -12 -30 -27 -35 -52 -4 -20 -13 -40 -20 -44 -20 -12 -33 -43 -41 -98 -9 -61 -25 -93 -67 -139 -29 -30 -42 -37 -103 -46 -38 -6 -92 -21 -120 -34 -27 -13 -66 -29 -85 -35 -40 -12 -107 -60 -162 -113 -25 -25 -41 -51 -49 -84 -17 -69 -26 -84 -54 -84 -14 0 -25 -5 -25 -10 0 -6 -12 -16 -27 -22 -40 -17 -63 -39 -63 -59 0 -12 -10 -21 -25 -25 -17 -4 -34 -22 -50 -53 -13 -25 -46 -64 -72 -86 -47 -40 -48 -40 -128 -40 -61 1 -92 6 -130 24 -27 12 -81 28 -120 36 -38 7 -107 32 -153 54 -123 61 -192 75 -332 65 -178 -13 -488 -11 -535 4 -66 20 -113 86 -142 196 -33 124 -63 186 -118 245 -39 42 -58 53 -128 76 -89 28 -147 66 -147 94 0 21 -86 105 -118 115 -48 16 -136 77 -168 119 -19 24 -40 64 -47 88 l-13 44 -133 0 c-123 0 -133 1 -149 21 -9 12 -27 27 -39 33 -13 7 -23 20 -23 30 0 20 -19 31 -51 31 -11 0 -30 10 -42 23 -35 37 -94 51 -181 42 l-76 -7 -11 -39 c-7 -21 -18 -39 -26 -39 -18 0 -31 -37 -39 -114 -6 -61 -8 -65 -33 -68 -18 -2 -27 -10 -29 -24 -3 -19 -12 -22 -80 -28 -123 -11 -142 -16 -152 -42 -6 -16 -18 -24 -42 -26 -27 -2 -34 -8 -36 -30 -3 -22 -9 -27 -35 -30 -21 -2 -35 -10 -41 -25 -9 -18 -28 -28 -103 -49 -7 -2 -13 -15 -13 -29 0 -33 -35 -48 -84 -34 -31 8 -36 14 -36 38 0 25 -5 30 -37 36 -21 4 -104 9 -184 12 -131 4 -147 6 -152 22 -3 13 -22 22 -64 31 -59 13 -60 14 -71 57 -7 24 -12 52 -12 63 0 13 -7 20 -19 20 -16 0 -21 9 -26 48 -8 62 -17 76 -51 82 -23 4 -30 12 -37 43 -5 20 -17 42 -27 47 -10 5 -23 25 -30 44 -9 29 -17 34 -50 40 -21 3 -52 17 -68 31 -43 36 -117 36 -134 0 -6 -14 -16 -25 -22 -25 -7 0 -26 -15 -43 -34 -24 -25 -44 -35 -79 -41 -35 -5 -48 -12 -52 -27 -4 -18 -11 -20 -52 -16 -27 3 -55 13 -67 24 -12 10 -33 27 -47 37 -29 20 -46 71 -46 143 0 32 -5 56 -14 63 -9 8 -51 11 -118 10 -142 -3 -177 9 -230 80 -69 93 -116 124 -203 136 -58 8 -105 24 -105 36 0 5 -6 9 -14 9 -21 0 -64 48 -77 87 -10 33 -8 41 26 110 l38 75 -5 106 c-5 100 -3 109 24 169 15 35 37 102 48 150 24 104 34 126 80 176 41 45 110 156 110 177 0 8 12 51 27 95 21 59 38 91 68 120 41 42 78 54 247 80 21 3 44 12 52 20 8 8 18 15 21 15 4 0 16 11 26 24 11 13 39 34 63 46 25 11 50 27 56 35 17 21 109 69 157 83 34 10 52 9 100 -3 70 -18 211 -64 235 -76 10 -5 45 -9 78 -9 33 0 60 -4 60 -10 0 -5 18 -10 40 -10 26 0 40 4 40 13 0 7 19 23 42 34 24 12 81 56 128 97 47 42 93 76 102 76 9 0 28 5 42 11 20 9 28 9 40 -4 9 -9 16 -20 16 -26 0 -6 5 -11 10 -11 6 0 10 -8 10 -18 0 -17 21 -23 177 -49 18 -3 33 -9 33 -14 0 -5 11 -9 24 -9 21 0 26 -7 35 -50 6 -28 11 -60 11 -70 0 -11 7 -20 15 -20 8 0 15 -8 15 -18 0 -10 5 -23 12 -30 14 -14 88 -16 88 -3 0 5 16 5 38 0 20 -5 66 -16 102 -23 44 -10 69 -21 79 -35 7 -12 20 -21 27 -21 8 0 14 -7 14 -15 0 -9 11 -20 25 -25 14 -5 29 -20 34 -33 12 -31 29 -43 71 -52 100 -20 220 -67 220 -85 0 -9 15 -21 33 -28 40 -15 107 -16 107 -2 0 6 15 10 34 10 43 0 136 21 136 30 0 4 13 10 29 13 16 4 40 17 53 30 13 13 36 27 51 31 14 3 39 22 54 42 15 20 43 51 61 69 17 18 32 37 32 42 1 18 39 53 58 53 11 0 22 7 26 15 3 8 12 15 21 15 8 0 15 5 15 10 0 6 7 10 15 10 8 0 19 9 25 20 6 12 21 20 35 20 14 0 25 5 25 10 0 6 9 10 20 10 11 0 20 5 20 10 0 6 9 10 20 10 11 0 20 5 20 10 0 6 18 10 40 10 30 0 40 4 40 16 0 13 10 14 68 9 81 -7 164 9 277 56 60 25 99 34 158 37 42 2 77 8 77 13 0 5 13 9 29 9 17 0 33 5 36 10 3 6 14 10 23 10 10 0 25 9 34 19 9 11 35 25 57 32 23 7 41 16 41 21 0 4 20 8 44 8 30 0 46 5 50 15 3 8 15 15 26 15 11 0 20 6 20 14 0 16 30 26 83 26 26 0 37 4 37 15 0 12 16 15 83 15 85 0 177 -23 177 -46 0 -6 24 -18 53 -27 149 -44 282 -46 399 -6 35 12 82 21 106 20 35 -2 42 1 42 17 0 23 19 42 42 42 10 0 18 4 18 10 0 5 21 7 50 3 42 -5 50 -3 50 11 0 9 7 16 15 16 8 0 15 -4 15 -10 0 -5 18 -10 39 -10 22 0 43 5 46 10 8 12 45 13 45 1 0 -16 47 -21 120 -15 l70 7 0 36 c0 20 4 41 8 46 13 19 52 35 81 35 16 0 31 5 33 11 7 20 171 -159 265 -289 56 -77 142 -149 189 -158 53 -10 151 1 219 24 80 28 164 42 247 42 37 0 68 4 68 9 0 5 25 12 55 16 30 3 55 10 55 15 0 5 14 11 30 15 17 4 30 10 30 13 0 11 108 50 173 62 51 10 57 14 57 36 0 15 6 24 15 24 8 0 15 7 15 15 0 8 8 15 18 15 10 0 24 6 30 12 10 10 15 10 20 1 5 -8 36 -12 87 -12 176 0 305 -12 305 -27 0 -19 88 -19 126 1 16 8 36 15 45 15 9 0 25 11 35 25 10 14 24 25 30 25 6 0 21 11 34 25 46 49 68 21 74 -94 4 -78 16 -152 26 -166 4 -5 11 -32 14 -60 10 -65 44 -139 90 -194 l37 -44 -25 -23 c-13 -13 -27 -38 -31 -56 -10 -51 -25 -86 -41 -92 -8 -3 -14 -12 -14 -19 0 -8 -15 -26 -34 -41 -20 -15 -37 -38 -41 -56 -4 -20 -13 -30 -25 -30 -29 0 -34 -32 -35 -240 -2 -240 -7 -264 -64 -338 -40 -51 -75 -65 -186 -73 -95 -7 -150 -23 -226 -64 -15 -8 -69 -20 -122 -26 l-96 -12 -86 42 c-60 29 -104 43 -141 46 -30 2 -52 0 -49 -5 3 -5 1 -11 -5 -15 -5 -3 -14 -14 -19 -23 -8 -15 -3 -17 38 -19 35 -1 60 -10 101 -38 29 -20 59 -44 66 -53 20 -27 189 -23 235 6 44 27 163 42 334 42 194 1 244 18 229 83 -3 16 1 56 10 90 8 34 18 74 21 89 4 20 9 25 24 21 14 -4 24 4 37 29 15 27 18 50 14 133 -2 55 -4 143 -4 196 l-1 97 50 53 c28 30 59 72 70 94 11 22 26 46 34 54 8 9 20 31 28 51 8 19 23 44 33 55 34 36 61 111 51 137 -12 30 -43 56 -60 50 -9 -3 -11 0 -6 8 6 10 3 12 -12 8 -25 -7 -46 24 -49 72 -1 19 -5 85 -9 145 -12 201 -34 258 -117 311 -21 13 -46 24 -55 24 -26 0 -84 -22 -117 -43 -50 -33 -159 -67 -214 -67 -59 0 -122 24 -122 47 0 8 -4 12 -9 9 -11 -7 -84 61 -94 87 -3 9 -13 17 -22 17 -8 0 -15 6 -15 13 0 18 -26 38 -90 69 -37 18 -57 24 -61 16 -8 -13 -102 -3 -107 12 -5 15 -42 12 -42 -3 0 -19 -41 -36 -74 -30 -21 4 -26 10 -23 24 6 23 -15 25 -37 4 -8 -8 -17 -15 -21 -15 -14 0 -34 -29 -38 -56 -4 -29 -4 -29 -6 4 -1 24 -5 32 -20 32 -11 0 -23 -4 -26 -10 -3 -5 -22 -10 -41 -10 -19 0 -34 -4 -34 -8 0 -15 -50 -32 -98 -33 -26 0 -41 -3 -34 -6 6 -2 12 -16 12 -29 0 -25 -20 -31 -92 -26 -19 1 -28 -3 -28 -13 0 -8 3 -15 8 -15 4 0 12 -8 18 -18 10 -16 8 -17 -22 -14 -18 2 -44 14 -57 26 -12 11 -42 33 -65 49 -23 15 -42 32 -42 37 0 6 -10 10 -22 10 l-21 0 22 -20 c13 -10 21 -24 19 -29 -1 -6 -18 3 -37 19 -39 34 -56 38 -211 43 -96 4 -125 9 -179 31 -35 15 -79 29 -98 32 -18 2 -73 18 -121 35 -248 87 -381 111 -492 89z m-3034 -665 c14 -13 14 -15 -1 -15 -9 0 -23 7 -31 15 -14 13 -14 15 1 15 9 0 23 -7 31 -15z m94 -75 c0 -12 -17 -12 -45 0 -17 7 -15 9 13 9 17 1 32 -3 32 -9z m-520 -2450 c0 -5 -9 -10 -21 -10 -11 0 -17 5 -14 10 3 6 13 10 21 10 8 0 14 -4 14 -10z"></path><path id="p138h4DIx6" d="M11495 4332 c-9 -10 -28 -45 -42 -78 -38 -88 -37 -185 5 -278 35 -81 67 -103 79 -58 5 15 8 117 8 227 0 180 -2 200 -17 203 -9 2 -24 -5 -33 -16z"></path><path id="pORdvbQxp" d="M3910 2665 c0 -8 5 -15 10 -15 6 0 10 7 10 15 0 8 -4 15 -10 15 -5 0 -10 -7 -10 -15z"></path></g></g><g id="li1yiOxy7iU8O8Okzphm1K" fill="rgb(212,230,244)" style="transform: none;"><g><path id="pMnY3OuXy" d="M8893 5403 c-20 -3 -33 -10 -33 -19 0 -8 -8 -18 -17 -21 -10 -4 -22 -11 -26 -17 -6 -8 -10 -7 -14 2 -2 6 -11 12 -19 12 -8 0 -14 6 -14 13 0 8 -4 7 -10 -3 -15 -23 -12 -29 9 -23 16 4 22 -3 30 -34 6 -21 11 -41 11 -45 0 -15 -26 -8 -48 12 -27 25 -30 25 -34 -2 -2 -17 -9 -22 -23 -20 -11 2 -21 8 -23 13 -2 5 -10 9 -17 9 -7 0 -15 6 -18 13 -3 9 -16 6 -47 -10 l-43 -23 -17 21 c-11 12 -21 16 -25 9 -3 -5 -17 -10 -30 -10 -14 0 -25 -7 -27 -17 -3 -15 -4 -15 -21 1 -15 15 -21 16 -47 4 -17 -7 -30 -16 -30 -20 0 -5 -7 -8 -15 -8 -15 0 -55 -19 -65 -31 -10 -12 -187 -67 -236 -74 -77 -10 -333 44 -268 57 39 7 -110 47 -186 49 -102 3 -252 -3 -215 -8 l30 -5 -34 -14 c-18 -8 -42 -14 -53 -14 -16 0 -18 -3 -9 -14 10 -12 5 -15 -29 -21 -22 -4 -42 -11 -46 -16 -3 -5 -22 -9 -42 -9 -23 0 -32 -3 -24 -8 9 -6 -1 -13 -28 -21 -23 -7 -49 -21 -58 -32 -9 -10 -24 -19 -34 -19 -9 0 -20 -5 -23 -11 -4 -6 -19 -7 -36 -4 -22 5 -29 3 -29 -9 0 -10 -9 -16 -26 -16 -16 0 -23 4 -18 11 4 7 0 9 -13 5 -10 -3 -44 -13 -76 -21 -31 -8 -85 -27 -119 -41 -68 -29 -136 -46 -143 -35 -2 4 -59 2 -127 -5 -68 -7 -132 -13 -143 -14 -11 -1 -14 -4 -7 -7 21 -8 13 -33 -10 -33 -19 0 -20 2 -8 10 12 8 11 10 -7 10 -12 0 -25 -4 -28 -10 -3 -5 -17 -10 -29 -10 -13 0 -29 -7 -36 -15 -11 -13 -8 -15 14 -15 14 0 26 5 26 10 0 6 12 9 28 9 23 -2 24 -2 5 -6 -13 -2 -23 -9 -23 -14 0 -5 -11 -9 -24 -9 -13 0 -31 -10 -40 -22 l-17 -23 6 28 c3 15 4 27 1 27 -2 0 -19 -14 -37 -31 -18 -17 -40 -36 -48 -42 -17 -13 -61 -72 -61 -83 0 -3 -15 -21 -32 -39 -18 -18 -46 -49 -61 -69 -15 -20 -40 -39 -54 -42 -15 -4 -38 -18 -51 -31 -13 -13 -37 -26 -53 -30 -16 -3 -29 -9 -29 -13 0 -12 -97 -29 -136 -24 -22 3 -53 12 -71 20 -17 8 -39 14 -48 14 -9 0 -25 5 -36 11 -22 11 -93 33 -169 51 -52 12 -69 23 -81 55 -5 13 -20 28 -34 33 -14 5 -25 16 -25 25 0 8 -7 15 -15 15 -8 0 -19 9 -25 20 -6 11 -21 22 -33 25 -76 17 -199 46 -210 51 -8 3 -22 -2 -31 -11 -13 -14 -19 -15 -31 -5 -8 7 -15 21 -15 31 0 11 -7 19 -15 19 -8 0 -15 9 -15 20 0 10 -5 42 -11 70 -9 43 -14 50 -35 50 -13 0 -24 4 -24 9 0 4 -19 11 -41 14 -23 3 -45 9 -48 14 -6 8 -32 11 -93 13 -21 1 -28 6 -28 21 0 10 -4 19 -10 19 -5 0 -10 6 -10 14 0 8 -6 17 -12 19 -7 3 1 6 19 6 17 1 34 7 36 14 4 10 6 10 6 0 1 -7 7 -13 15 -13 8 0 17 6 19 13 4 10 6 10 6 0 1 -9 18 -13 51 -13 28 0 50 -4 50 -10 0 -5 7 -10 15 -10 8 0 15 5 15 11 0 6 7 4 15 -5 8 -8 15 -26 15 -40 0 -19 5 -26 19 -26 10 0 21 7 25 15 5 15 -7 102 -17 111 -10 10 -262 4 -265 -6 -2 -5 -13 -10 -25 -10 -12 0 -47 -9 -77 -20 -30 -11 -62 -20 -70 -20 -8 0 -53 -34 -100 -76 -108 -96 -164 -124 -248 -124 -34 0 -70 4 -80 9 -32 16 -207 71 -227 71 -12 0 -16 3 -8 8 20 12 -110 13 -157 1 -53 -15 -140 -61 -165 -89 -10 -11 -23 -20 -30 -20 -7 0 -31 -13 -53 -30 -23 -16 -47 -30 -54 -30 -7 0 -22 -7 -32 -15 -20 -15 -20 -15 0 -16 28 -1 -34 -28 -66 -29 -13 0 -61 -8 -105 -17 -107 -23 -148 -62 -188 -178 -15 -44 -27 -87 -27 -95 0 -21 -69 -132 -110 -177 -19 -21 -40 -49 -47 -63 -13 -27 -37 -111 -35 -122 4 -16 -29 -107 -43 -118 -8 -7 -13 -16 -10 -20 6 -10 -15 -60 -24 -60 -4 0 -5 -21 -4 -47 11 -189 12 -177 -28 -259 -22 -45 -36 -86 -34 -98 3 -12 6 -30 8 -41 1 -11 6 -26 10 -32 5 -7 5 -13 2 -13 -3 0 11 -15 31 -34 21 -19 42 -33 46 -30 4 3 8 1 8 -4 0 -14 51 -33 103 -38 85 -8 133 -40 210 -141 27 -35 51 -62 55 -61 4 1 32 -4 62 -10 30 -7 91 -10 134 -7 50 2 85 0 93 -7 8 -6 13 -32 13 -62 0 -72 17 -123 46 -143 14 -10 36 -27 47 -38 18 -17 36 -20 102 -20 64 0 80 3 80 15 0 10 17 18 49 25 32 7 59 21 80 43 18 17 37 32 42 32 6 0 16 11 22 25 15 32 36 32 74 0 16 -14 47 -28 68 -31 36 -6 40 -10 56 -55 10 -27 21 -44 25 -38 8 14 14 4 29 -50 10 -38 14 -43 36 -38 32 6 41 -7 49 -80 4 -35 11 -63 16 -63 5 0 9 5 9 10 0 6 5 10 10 10 6 0 10 -10 10 -21 0 -12 5 -39 11 -60 11 -34 17 -40 63 -54 28 -9 58 -19 66 -21 12 -4 12 -7 1 -13 -28 -18 17 -25 159 -27 80 -1 162 -5 183 -9 32 -6 37 -11 37 -36 0 -24 5 -30 37 -38 80 -23 151 -4 145 37 -2 12 3 24 10 26 7 2 34 10 61 17 28 8 46 18 43 25 -7 18 15 34 45 34 23 0 28 5 31 27 2 19 10 29 23 31 54 8 66 13 63 29 -4 21 27 29 136 38 76 7 85 9 88 29 2 14 11 22 29 24 25 3 27 7 33 68 7 68 25 127 33 107 7 -20 23 -15 23 6 0 10 5 32 11 48 9 27 15 31 62 36 60 7 111 -7 145 -41 12 -12 31 -22 41 -22 32 0 51 -11 51 -31 0 -10 10 -24 23 -30 12 -7 32 -23 45 -37 23 -24 26 -24 149 -21 l127 4 13 -44 c7 -24 28 -64 47 -88 32 -42 120 -103 168 -119 35 -11 119 -95 114 -113 -8 -24 60 -67 152 -97 69 -22 88 -33 127 -75 55 -59 85 -121 118 -245 27 -106 76 -175 137 -195 55 -18 388 -23 520 -8 142 16 224 2 350 -61 47 -23 116 -48 155 -55 39 -8 93 -24 120 -37 42 -19 67 -23 160 -23 l111 0 47 40 c26 22 59 61 72 86 16 31 33 49 50 53 15 4 25 13 25 25 0 20 23 42 63 59 15 6 27 16 27 22 0 5 7 10 15 10 8 0 15 -4 15 -10 0 -5 4 -10 8 -10 9 0 24 40 42 109 17 63 130 167 210 192 19 6 58 22 85 35 28 13 82 28 120 34 61 9 74 16 103 46 42 46 58 78 67 139 8 55 21 86 41 98 7 4 16 24 20 44 5 25 15 40 35 52 16 9 29 21 29 28 0 7 16 15 35 19 34 6 63 29 52 41 -8 7 12 33 25 33 5 0 8 -10 6 -22 -1 -13 2 -25 7 -28 6 -3 11 6 12 20 1 14 7 45 12 70 6 25 11 70 11 100 2 92 18 106 19 16 1 -44 3 -77 6 -74 3 2 9 56 14 119 10 120 42 216 82 249 10 8 24 33 31 55 8 24 22 44 36 50 13 6 24 19 27 30 2 11 8 43 14 70 6 28 12 69 14 93 2 38 0 42 -20 42 -13 0 -23 -3 -23 -8 0 -4 -12 -21 -27 -38 -16 -17 -34 -42 -42 -57 -8 -15 -18 -27 -23 -27 -4 0 -8 -17 -8 -38 0 -39 -41 -171 -64 -207 -8 -11 -17 -35 -21 -53 -3 -18 -15 -37 -25 -42 -15 -8 -19 -29 -25 -143 l-7 -134 -37 -9 c-29 -7 -37 -14 -39 -36 -3 -26 -8 -30 -63 -42 -14 -3 -41 -19 -60 -36 -19 -16 -41 -36 -50 -44 -9 -7 -24 -49 -34 -92 -14 -62 -24 -85 -48 -108 -27 -26 -35 -29 -97 -27 -82 2 -120 -13 -120 -46 0 -32 -88 -117 -137 -134 -21 -7 -65 -29 -98 -49 -64 -39 -65 -40 -89 -182 -6 -34 -10 -38 -36 -38 -17 0 -36 -9 -47 -22 -11 -13 -41 -35 -68 -49 -39 -20 -55 -38 -84 -89 -23 -40 -57 -81 -89 -107 -47 -39 -58 -43 -106 -43 -37 0 -61 6 -77 19 -13 10 -42 24 -64 31 -22 7 -109 48 -193 91 -84 44 -162 79 -173 79 -10 0 -19 5 -19 10 0 6 -19 10 -42 10 -24 0 -63 5 -88 11 -54 12 -177 -1 -331 -37 -58 -13 -133 -24 -166 -24 -53 0 -67 5 -121 40 -44 28 -60 44 -56 55 3 8 10 15 15 15 5 0 9 27 9 60 0 49 -4 63 -22 79 -77 66 -119 113 -147 164 -38 67 -57 82 -125 97 -27 6 -67 19 -90 29 -22 10 -50 20 -60 22 -11 2 -23 15 -26 29 -6 23 -33 56 -90 114 -11 10 -59 40 -107 66 -69 37 -93 55 -110 86 -31 54 -43 82 -43 102 0 10 -7 28 -16 41 -16 22 -22 23 -82 18 -43 -3 -73 -12 -93 -26 -36 -27 -89 -28 -96 -3 -2 10 -20 24 -38 31 -22 8 -35 19 -37 34 -2 15 -14 24 -42 32 -23 7 -42 19 -46 31 -4 12 -19 21 -40 24 -32 5 -42 15 -54 53 -4 13 -16 17 -51 17 -39 0 -47 -4 -57 -25 -8 -18 -19 -25 -40 -25 -24 0 -32 -6 -44 -35 -8 -19 -19 -35 -24 -35 -18 0 -33 -45 -39 -119 l-6 -76 -65 -5 c-61 -5 -65 -7 -68 -31 -3 -24 -8 -26 -75 -35 -64 -8 -72 -12 -75 -32 -2 -16 -10 -22 -27 -22 -39 0 -55 -11 -55 -36 0 -26 -4 -29 -63 -39 -31 -5 -40 -12 -49 -35 -8 -24 -16 -29 -46 -32 -34 -3 -37 -6 -40 -35 -3 -32 -4 -33 -53 -33 l-49 0 0 35 c0 37 -3 40 -61 49 -20 4 -47 15 -59 26 -34 29 -172 29 -197 0 -22 -25 -49 -26 -55 -2 -5 19 -66 42 -111 42 -24 0 -26 4 -32 58 -8 70 -20 102 -39 102 -10 0 -17 14 -21 37 -10 59 -13 63 -43 63 -27 0 -30 4 -42 55 -10 41 -18 55 -31 55 -11 0 -20 11 -24 30 -5 24 -14 32 -35 37 -20 3 -32 14 -39 33 -6 20 -18 30 -40 35 -17 3 -33 11 -36 16 -4 5 -23 9 -44 9 -46 0 -105 -36 -109 -68 -2 -12 -14 -30 -28 -38 -13 -9 -24 -22 -24 -30 0 -7 -10 -16 -22 -18 -13 -2 -49 -10 -81 -16 -49 -10 -64 -9 -103 6 -57 22 -67 39 -53 101 26 117 32 161 25 187 -7 27 -7 28 -74 23 -37 -2 -90 -11 -118 -19 -46 -14 -53 -14 -81 1 -31 16 -123 114 -123 131 0 5 -20 29 -45 54 -25 26 -45 56 -45 67 0 21 -3 21 -78 15 -42 -4 -86 -9 -97 -12 -28 -7 -65 27 -65 60 0 15 7 41 16 58 32 63 55 212 63 423 2 57 21 140 34 150 7 6 16 18 20 27 9 26 96 85 150 102 46 15 51 15 87 -4 21 -11 60 -44 87 -75 42 -48 53 -55 86 -55 20 0 37 -4 37 -9 0 -5 13 -23 29 -40 20 -22 38 -31 60 -31 17 0 31 5 31 10 0 6 9 10 20 10 16 0 20 7 20 30 0 25 4 30 25 30 22 0 25 4 25 34 0 19 -5 36 -10 38 -6 2 -13 41 -17 88 -3 47 -11 88 -17 92 -6 4 4 8 22 8 25 0 32 4 32 20 0 13 7 20 20 20 14 0 20 7 20 23 0 25 25 83 40 92 5 3 41 6 80 7 68 1 72 0 97 -30 14 -18 31 -32 38 -32 7 0 26 -13 43 -30 28 -26 39 -30 89 -30 61 -1 93 -16 93 -44 0 -11 9 -16 29 -16 16 0 31 -6 34 -12 5 -16 164 -18 175 -2 15 22 103 54 150 54 36 0 51 -5 62 -20 16 -23 85 -28 93 -7 3 10 9 10 26 0 11 -7 25 -13 30 -13 5 0 23 -13 39 -30 17 -16 38 -30 46 -30 9 0 16 -8 16 -20 0 -17 7 -20 44 -20 27 0 46 -5 49 -12 3 -10 48 -12 193 -10 104 2 191 6 194 10 3 4 48 9 100 11 52 2 98 8 101 13 9 13 81 27 145 28 55 0 166 -31 198 -55 25 -19 91 -111 110 -152 8 -18 20 -33 25 -33 6 0 11 -7 11 -16 0 -31 58 -64 112 -64 17 0 36 -7 42 -16 10 -13 25 -15 94 -9 71 7 82 10 82 26 0 12 7 19 20 19 11 0 20 5 20 10 0 6 9 10 20 10 11 0 20 5 20 10 0 6 9 10 20 10 11 0 20 5 20 10 0 6 20 10 45 10 40 0 45 3 45 23 0 14 3 18 8 10 13 -20 132 -29 143 -12 6 10 9 6 9 -13 0 -26 3 -28 45 -28 38 0 45 3 45 20 0 15 7 20 27 20 37 0 85 40 143 118 27 37 58 77 70 89 11 12 20 29 20 38 0 8 5 15 10 15 6 0 10 7 10 15 0 8 5 15 10 15 6 0 10 11 10 24 0 14 5 28 10 31 6 3 10 17 10 30 0 13 5 27 10 30 6 3 10 17 10 31 0 21 4 24 40 24 33 0 40 3 40 20 0 11 4 20 9 20 5 0 12 18 16 40 4 22 11 40 16 40 5 0 9 11 9 25 0 14 6 25 13 25 6 0 32 11 57 24 27 14 70 25 108 29 43 3 75 13 100 29 47 31 154 57 160 40 2 -7 19 -12 38 -12 27 0 34 4 34 19 0 17 9 18 160 13 144 -4 160 -3 160 12 0 14 16 16 129 16 123 0 133 -2 194 -30 36 -16 69 -30 73 -30 4 0 15 -6 23 -14 21 -17 218 -81 299 -97 48 -9 62 -16 62 -29 0 -10 9 -20 21 -23 11 -3 23 -15 26 -26 3 -12 11 -21 18 -21 7 0 15 -9 18 -20 3 -11 21 -29 40 -40 19 -11 37 -29 40 -40 3 -13 17 -21 43 -25 47 -7 104 -34 111 -52 4 -9 30 -13 89 -13 73 0 85 3 96 20 9 14 24 20 51 20 39 0 58 11 70 43 4 10 17 17 34 17 21 0 34 9 51 35 15 24 30 35 45 35 15 0 28 9 35 24 11 25 91 86 113 86 22 0 99 32 99 41 0 5 7 9 15 9 8 0 15 4 15 9 0 4 31 11 68 14 38 4 95 16 128 27 32 11 71 20 87 20 15 0 27 5 27 10 0 6 14 10 30 10 17 0 30 4 30 8 0 17 77 45 138 50 34 2 95 0 135 -7 39 -6 142 -12 227 -13 133 -3 161 0 198 16 23 10 42 23 42 30 1 16 54 75 87 97 37 25 59 24 155 -8 70 -24 92 -37 150 -92 44 -41 79 -86 99 -125 l31 -61 -16 -56 c-21 -71 -58 -127 -106 -160 -48 -35 -53 -64 -55 -314 -1 -104 -3 -200 -3 -211 -3 -32 -79 -120 -120 -137 -21 -9 -76 -20 -124 -25 -58 -6 -96 -16 -115 -29 -15 -11 -46 -26 -68 -34 -22 -7 -46 -17 -53 -23 -18 -13 -155 -11 -192 3 -17 6 -43 16 -59 22 l-28 10 0 110 c0 65 -4 113 -10 117 -5 4 -14 21 -20 37 -6 19 -17 31 -32 33 -12 2 -25 10 -28 18 -3 10 -22 14 -59 14 -63 0 -71 -17 -21 -40 17 -8 31 -21 29 -28 -1 -6 3 -12 9 -12 5 0 7 -4 4 -10 -3 -5 -2 -10 3 -10 5 0 9 -6 10 -12 1 -7 4 -41 8 -75 5 -46 4 -63 -5 -63 -7 0 -9 -4 -6 -10 3 -6 1 -10 -4 -10 -6 0 -11 -7 -11 -15 0 -7 -8 -19 -17 -24 -10 -6 -15 -11 -10 -11 4 0 -1 -8 -10 -18 -10 -11 -21 -17 -24 -16 -3 2 -6 -3 -6 -11 0 -7 16 -17 36 -21 20 -4 41 -8 47 -10 6 -1 44 -18 85 -38 55 -27 85 -36 125 -36 74 0 205 19 229 34 26 15 123 53 155 59 14 3 59 7 100 8 41 1 81 6 88 12 6 5 12 6 12 1 0 -12 79 77 94 106 28 55 45 181 35 265 -10 84 -3 233 12 257 8 11 11 11 18 -1 7 -11 12 -3 22 28 8 27 25 52 46 68 18 14 33 32 33 40 0 7 6 16 14 19 16 6 31 41 41 92 4 19 18 43 31 55 36 31 32 76 -12 128 -19 23 -44 59 -54 80 -18 35 -23 53 -36 129 -3 19 -9 39 -12 45 -3 5 -7 21 -9 35 -5 43 -9 59 -14 64 -2 3 -3 37 -2 75 1 42 -2 71 -8 71 -6 0 -8 4 -4 9 3 5 -4 16 -15 24 -11 7 -17 17 -13 20 3 4 -6 7 -20 7 -15 0 -27 -5 -27 -11 0 -5 -4 -8 -8 -5 -5 3 -22 -8 -37 -24 -16 -17 -34 -30 -39 -30 -6 0 -20 -11 -30 -25 -10 -14 -26 -25 -35 -25 -9 0 -28 -7 -43 -14 -31 -17 -68 -17 -65 -1 1 6 -41 13 -108 17 -154 10 -215 18 -215 30 0 11 -139 1 -155 -12 -5 -4 -30 -11 -55 -16 -44 -7 -44 -8 -15 -15 29 -6 29 -7 4 -8 -15 0 -32 -8 -39 -16 -10 -13 -9 -15 9 -15 43 0 19 -19 -36 -30 -32 -6 -80 -19 -107 -30 -27 -11 -53 -17 -57 -14 -5 3 -9 -2 -9 -10 0 -10 -6 -13 -15 -10 -8 4 -15 1 -15 -5 0 -6 -7 -11 -15 -11 -8 0 -15 -5 -15 -11 0 -5 -8 -9 -17 -8 -10 1 -26 -1 -36 -6 -9 -4 -26 -5 -37 -2 -12 3 -20 0 -20 -7 0 -7 -24 -12 -67 -14 -89 -4 -174 -18 -246 -43 -81 -27 -138 -33 -181 -19 -45 14 -152 117 -199 190 -19 31 -42 62 -50 69 -9 7 -13 20 -10 29 3 12 2 13 -4 4 -10 -13 -40 14 -81 74 -47 68 -111 98 -189 87z m-2790 -623 c-13 -5 -23 -15 -23 -21 0 -7 -2 -10 -5 -7 -12 11 9 38 29 37 21 0 21 0 -1 -9z"></path><path id="ph0wDE8wg" d="M7593 5253 c9 -2 25 -2 35 0 9 3 1 5 -18 5 -19 0 -27 -2 -17 -5z"></path><path id="p52IJFt2J" d="M6610 4960 l-25 -8 28 -1 c15 -1 27 4 27 9 0 6 -1 10 -2 9 -2 -1 -14 -5 -28 -9z"></path><path id="pW072Q70E" d="M5043 2843 c-18 -7 -17 -104 1 -128 16 -22 136 -36 136 -16 0 6 9 11 20 11 16 0 20 7 20 38 0 56 -10 82 -31 82 -10 0 -21 5 -24 10 -6 10 -99 13 -122 3z"></path><path id="pQ2A2lWFD" d="M4756 2342 c-3 -6 -1 -14 5 -17 15 -10 25 3 12 16 -7 7 -13 7 -17 1z"></path></g></g><g id="l2OjFOfzDOAt2ZRZFD3Ng9E" fill="rgb(223,231,242)" style="transform: none;"><g><path id="p9yf3uAEf" d="M8020 4900 c0 -5 7 -10 15 -10 8 0 15 5 15 10 0 6 -7 10 -15 10 -8 0 -15 -4 -15 -10z"></path><path id="p3ItFsoDi" d="M8060 4900 c0 -5 9 -10 20 -10 11 0 20 5 20 10 0 6 -9 10 -20 10 -11 0 -20 -4 -20 -10z"></path><path id="p138imf80Z" d="M7581 4876 c2 -2 51 -6 107 -7 57 -2 106 -8 109 -13 4 -6 -52 -7 -143 -3 -114 6 -168 4 -229 -8 -129 -24 -138 -27 -179 -54 -29 -19 -52 -25 -95 -26 -40 0 -68 -7 -96 -24 -42 -24 -60 -28 -87 -16 -12 5 -20 2 -24 -9 -3 -9 -12 -16 -19 -16 -18 0 -45 -62 -45 -104 0 -25 -6 -40 -20 -48 -11 -7 -20 -23 -20 -35 0 -12 -4 -25 -10 -28 -5 -3 -10 -17 -10 -30 0 -13 -4 -27 -10 -30 -5 -3 -10 -17 -10 -31 0 -13 -4 -24 -10 -24 -5 0 -10 -7 -10 -15 0 -8 -4 -15 -10 -15 -5 0 -10 -7 -10 -16 0 -8 -7 -22 -15 -30 -13 -14 -15 -13 -15 9 0 14 4 27 8 29 5 2 12 17 16 33 10 40 -4 24 -40 -45 -40 -79 -100 -143 -162 -172 -30 -14 -33 -17 -14 -18 12 0 22 5 22 10 0 6 15 10 34 10 26 0 36 5 41 20 3 11 10 20 15 20 5 0 11 8 15 19 7 23 43 66 50 59 8 -8 -92 -135 -128 -162 -41 -31 -79 -33 -147 -6 -29 12 -71 19 -98 18 -36 -1 -40 -2 -14 -5 17 -2 32 -8 32 -14 0 -5 9 -9 20 -9 11 0 20 -5 20 -10 0 -13 -72 -2 -81 12 -9 13 -134 4 -152 -11 -9 -6 -31 -15 -51 -18 -20 -3 -36 -10 -36 -14 0 -5 -7 -9 -15 -9 -8 0 -19 -9 -25 -20 -6 -11 -16 -20 -22 -20 -6 0 -18 -8 -27 -18 -19 -22 -49 -34 -62 -26 -5 3 -2 12 6 21 23 22 13 26 -35 13 -33 -9 -49 -9 -74 1 -40 17 -64 39 -42 39 9 0 16 -4 16 -10 0 -5 9 -10 20 -10 11 0 20 5 20 10 0 6 -8 10 -17 10 -27 0 -75 36 -93 69 -32 61 -90 137 -117 152 -49 29 -135 49 -211 49 -86 0 -210 -19 -193 -29 12 -8 7 -8 -168 -10 -63 0 -117 -5 -120 -10 -9 -13 -183 -23 -211 -12 l-25 10 25 1 c21 1 17 6 -25 26 -27 13 -65 24 -83 24 -24 0 -42 9 -64 30 -16 17 -34 30 -39 30 -9 0 -49 20 -59 30 -30 30 -200 64 -200 40 0 -5 -9 -10 -20 -10 -11 0 -20 -4 -20 -10 0 -5 -5 -10 -10 -10 -16 0 -104 -43 -112 -54 -10 -15 -110 -13 -115 2 -3 6 -18 12 -34 12 -22 0 -29 5 -29 19 0 12 -13 25 -36 36 -20 9 -39 26 -42 37 -2 11 -15 24 -29 29 -13 5 -28 20 -33 34 -8 20 -16 25 -45 25 -24 0 -35 -5 -35 -15 0 -8 9 -15 20 -15 13 0 20 -7 20 -20 0 -11 5 -20 10 -20 6 0 10 -7 10 -15 0 -8 -4 -15 -10 -15 -5 0 -10 4 -10 8 0 5 -12 15 -28 22 -15 8 -40 27 -55 44 -26 28 -33 30 -109 31 -45 2 -93 -1 -107 -4 -29 -8 -59 -54 -60 -93 -1 -21 -6 -28 -21 -28 -13 0 -20 -7 -20 -20 0 -11 -7 -20 -15 -20 -8 0 -15 5 -15 11 0 16 26 39 44 39 19 0 19 4 7 48 -7 23 -6 32 2 32 7 0 19 9 27 20 8 11 21 20 28 20 10 0 12 8 7 30 l-7 30 51 0 c28 0 51 -4 51 -10 0 -17 22 -11 41 12 l19 21 0 -21 c0 -24 25 -30 33 -9 4 10 6 10 6 0 1 -7 8 -13 17 -13 11 0 15 6 11 20 -3 10 0 21 7 24 6 2 1 5 -11 5 -12 1 -25 6 -29 12 -7 11 -44 9 -129 -10 -48 -11 -105 -52 -105 -76 0 -7 -9 -20 -20 -30 -11 -10 -20 -25 -20 -34 0 -9 -14 -43 -30 -76 -17 -33 -30 -72 -30 -87 0 -15 -5 -30 -10 -33 -6 -3 -10 -13 -10 -22 0 -13 4 -11 19 6 l19 22 4 -66 c2 -47 0 -65 -9 -65 -7 0 -13 -7 -13 -15 0 -8 6 -15 13 -15 6 -1 -1 -8 -17 -17 -23 -12 -34 -13 -48 -4 -25 16 -22 6 7 -23 29 -29 31 -36 10 -36 -8 0 -26 18 -39 39 -32 50 -53 64 -25 16 12 -20 19 -39 15 -42 -3 -4 -6 -1 -6 5 0 14 -53 72 -65 72 -5 0 0 -9 10 -20 29 -32 4 -23 -34 13 -18 17 -30 25 -26 17 4 -8 -12 4 -36 26 -76 72 -131 88 -208 61 -53 -18 -51 -37 3 -37 43 0 47 -2 52 -29 4 -20 15 -33 33 -41 15 -6 39 -30 52 -52 31 -52 114 -138 134 -138 8 0 15 -4 15 -10 0 -5 7 -10 15 -10 8 0 15 -4 15 -10 0 -5 18 -22 40 -36 22 -15 40 -33 40 -40 0 -8 11 -14 25 -14 14 0 25 -4 25 -10 0 -5 20 -10 45 -10 25 0 45 -4 45 -10 0 -5 14 -10 30 -10 27 0 30 -3 30 -30 0 -28 3 -30 35 -30 32 0 35 2 35 30 0 28 2 30 40 30 33 0 40 3 40 20 0 13 7 20 20 20 14 0 20 -7 20 -24 0 -20 6 -25 45 -30 33 -5 45 -12 45 -24 0 -17 59 -42 100 -42 11 0 20 -7 20 -15 0 -10 10 -15 33 -15 55 0 127 -29 127 -51 0 -14 7 -19 25 -19 14 0 25 -4 25 -10 0 -5 13 -10 30 -10 21 0 34 -8 47 -27 10 -16 23 -34 30 -41 7 -7 13 -20 13 -28 0 -8 8 -14 18 -14 9 0 30 -16 47 -35 16 -19 38 -35 47 -35 10 0 18 -4 18 -10 0 -5 23 -10 50 -10 28 0 50 5 50 10 0 15 49 12 66 -4 8 -8 14 -22 14 -30 0 -19 26 -20 97 -4 30 7 53 18 53 25 0 7 7 13 15 13 10 0 15 -11 15 -35 0 -29 4 -35 20 -35 12 0 32 -11 45 -24 13 -14 34 -27 45 -31 11 -3 20 -14 20 -24 0 -20 73 -42 133 -39 21 1 43 -4 49 -10 7 -7 19 -12 28 -12 9 0 35 -9 58 -20 22 -11 47 -20 53 -20 12 0 80 -29 121 -51 10 -5 25 -9 33 -9 8 0 15 -4 15 -10 0 -5 12 -10 26 -10 17 0 28 -6 31 -20 4 -16 14 -20 44 -20 32 0 39 -3 39 -20 0 -13 7 -20 20 -20 14 0 20 -7 20 -22 0 -19 6 -23 35 -25 31 -1 35 1 35 23 0 21 4 24 39 24 22 0 51 4 65 10 17 6 26 6 26 0 0 -6 16 -10 35 -10 19 0 35 5 35 10 0 6 7 10 15 10 8 0 15 -7 15 -15 0 -12 17 -15 90 -15 69 0 90 3 90 13 0 9 22 19 55 26 30 7 55 17 55 22 0 5 11 9 25 9 14 0 25 5 25 10 0 6 11 10 25 10 22 0 25 4 25 35 0 28 -4 35 -20 35 -11 0 -20 4 -20 9 0 19 64 41 117 41 29 0 53 5 53 10 0 6 16 10 36 10 l37 0 -7 62 c-4 35 -10 75 -13 91 -4 20 -2 27 11 27 9 0 16 5 16 10 0 6 16 10 35 10 27 0 35 4 35 18 0 10 11 25 25 32 14 7 25 22 25 32 0 10 7 18 15 18 8 0 17 14 21 35 5 31 10 35 36 35 l31 0 -7 65 c-6 61 -5 65 14 65 12 0 20 -7 20 -16 0 -14 8 -16 45 -12 40 5 47 3 67 -23 13 -16 29 -29 36 -29 6 0 12 -4 12 -10 0 -5 16 -10 35 -10 33 0 35 2 35 34 0 24 -5 36 -17 39 -10 3 1 5 25 6 40 1 42 0 42 -29 0 -28 3 -30 35 -30 28 0 35 4 35 20 0 11 7 20 15 20 11 0 15 11 15 40 0 22 5 40 10 40 6 0 10 9 10 20 0 11 4 20 9 20 5 0 14 13 21 30 16 38 72 98 78 82 5 -15 92 -16 92 -2 0 6 13 10 29 10 17 0 32 4 35 9 6 10 91 -4 118 -19 10 -6 27 -10 37 -10 11 0 23 -4 26 -10 3 -5 17 -10 30 -10 13 0 27 -4 30 -10 3 -5 13 -10 21 -10 20 0 44 -24 44 -44 0 -12 10 -16 34 -16 19 0 38 -4 41 -10 3 -5 19 -10 34 -10 15 0 42 -7 59 -15 42 -21 120 -32 290 -40 l142 -7 0 -42 c0 -22 3 -65 6 -93 6 -45 4 -53 -10 -53 -12 0 -16 -9 -16 -35 0 -28 4 -35 20 -35 11 0 20 -4 20 -9 0 -12 72 -23 158 -24 63 0 72 -2 72 -19 0 -13 8 -18 29 -18 42 0 61 -10 61 -31 0 -16 8 -19 49 -19 30 0 51 5 54 13 4 9 6 9 6 0 1 -15 71 -18 71 -3 0 6 9 10 20 10 11 0 20 -4 20 -10 0 -5 18 -10 40 -10 29 0 40 4 40 15 0 12 11 14 63 8 34 -3 64 -9 67 -13 3 -4 17 -10 33 -14 15 -3 27 -11 27 -16 0 -6 15 -10 34 -10 19 0 36 -5 38 -10 4 -14 194 -56 292 -65 59 -5 81 -4 86 6 9 14 89 14 157 -1 24 -6 49 -8 54 -5 5 4 9 24 9 46 0 26 7 47 20 61 11 12 20 28 20 35 0 7 4 13 9 13 10 0 101 130 129 185 11 22 29 70 40 107 33 112 227 368 278 368 9 0 30 -10 47 -22 18 -12 26 -15 20 -8 -7 8 -13 18 -13 23 0 5 12 -6 28 -24 15 -18 26 -37 24 -41 -1 -5 9 -14 23 -20 14 -6 25 -17 25 -25 0 -7 7 -13 16 -13 15 0 16 10 9 82 -6 69 -11 86 -31 105 -13 12 -24 26 -24 32 0 5 -8 12 -18 15 -10 4 -29 16 -43 29 -20 19 -34 22 -91 21 -55 -2 -68 1 -73 15 -5 15 -47 42 -87 55 -10 3 -18 15 -18 26 0 11 -7 20 -15 20 -8 0 -15 7 -15 15 0 8 -7 15 -16 15 -8 0 -21 6 -28 13 -15 15 -46 134 -46 177 0 28 -3 30 -35 30 -19 0 -35 -4 -35 -10 0 -5 -15 -10 -34 -10 -19 0 -37 -6 -39 -12 -3 -7 -6 -3 -6 9 -1 17 5 22 32 25 29 3 32 6 35 41 l3 38 -38 -3 c-33 -3 -38 -7 -41 -30 -3 -26 -22 -41 -22 -18 0 6 -16 10 -35 10 -19 0 -35 -4 -35 -10 0 -5 -6 -10 -13 -10 -9 0 -11 12 -9 40 4 35 2 40 -17 40 -12 0 -21 6 -21 15 0 9 -9 15 -21 15 -27 0 -108 -56 -121 -84 -7 -16 -16 -22 -31 -19 -17 3 -28 -5 -47 -37 -23 -37 -26 -39 -34 -20 -9 19 -10 19 -32 -8 -13 -15 -24 -31 -24 -35 0 -14 -28 -37 -44 -37 -9 0 -16 5 -16 10 0 22 -40 9 -52 -17 -11 -24 -20 -28 -65 -31 -43 -3 -55 1 -78 22 -29 27 -38 30 -99 41 -26 4 -40 12 -43 25 -3 11 -21 29 -40 40 -19 11 -37 29 -40 40 -3 11 -11 20 -18 20 -7 0 -15 9 -18 20 -3 11 -16 24 -29 29 l-23 10 23 0 c12 1 22 6 22 11 0 6 12 10 28 11 19 0 7 7 -42 25 -39 13 -79 24 -90 23 -18 -1 -18 -2 4 -9 l25 -8 -25 -2 c-14 -1 -34 -2 -45 -1 -34 3 -239 73 -256 87 -8 8 -19 14 -23 14 -4 0 -37 14 -73 30 l-64 30 -271 0 c-149 0 -269 -2 -267 -4z m-2921 -612 c0 -2 -14 -4 -31 -4 -16 0 -28 4 -25 9 5 8 56 3 56 -5z"></path><path id="pQQFzi4D2" d="M8334 4805 c8 -8 27 -14 43 -14 23 2 24 2 6 6 -13 2 -23 9 -23 14 0 5 -9 9 -21 9 -18 0 -19 -2 -5 -15z"></path><path id="pCicBTfDI" d="M8740 4673 c0 -17 6 -23 23 -23 16 0 18 3 8 9 -7 5 -17 15 -22 22 -6 10 -9 8 -9 -8z"></path><path id="p7fG95EGK" d="M3640 4584 c0 -8 9 -14 20 -14 11 0 20 4 20 9 0 5 -9 11 -20 14 -13 3 -20 0 -20 -9z"></path><path id="pCz8mg2vZ" d="M3600 4565 c0 -8 7 -15 15 -15 8 0 15 7 15 15 0 8 -7 15 -15 15 -8 0 -15 -7 -15 -15z"></path><path id="pJt27c8us" d="M6780 4497 c0 -24 -5 -48 -12 -55 -8 -8 -8 -12 -1 -12 13 0 23 23 23 56 0 13 5 24 10 24 6 0 10 7 10 15 0 8 -7 15 -15 15 -11 0 -15 -11 -15 -43z"></path><path id="pLkcI0SO8" d="M3015 4217 c10 -15 20 -25 23 -22 3 3 -5 16 -17 28 l-23 22 17 -28z"></path><path id="p3ks0HfIN" d="M3226 4205 c-4 -10 1 -15 14 -15 11 0 20 7 20 15 0 8 -6 15 -14 15 -8 0 -16 -7 -20 -15z"></path></g></g><g id="l79WML4I7vyiFpAwXhVFHdw" fill="rgb(229,240,248)" style="transform: none;"><g><path id="p101hX4cjq" d="M10808 5022 c-34 -22 -99 -97 -92 -105 9 -9 -88 -41 -125 -41 -86 -1 -294 15 -310 23 -20 11 -175 5 -216 -8 -80 -26 -107 -39 -94 -44 8 -3 -3 -6 -24 -6 -26 -1 -36 -5 -31 -13 5 -7 2 -9 -8 -5 -9 3 -48 -5 -88 -19 -39 -13 -102 -26 -138 -29 -37 -3 -68 -10 -70 -15 -2 -6 -10 -10 -18 -10 -8 0 -14 -4 -14 -9 0 -9 -77 -41 -101 -41 -9 0 -24 -9 -34 -20 -20 -22 -14 -26 14 -11 16 9 17 5 10 -47 -9 -65 0 -93 19 -62 7 12 8 20 2 20 -16 0 -11 26 9 44 18 16 18 16 14 -8 -7 -36 5 -76 22 -76 8 0 15 -4 15 -9 0 -15 60 -74 68 -66 4 4 1 10 -5 12 -7 3 -13 18 -13 34 0 20 -5 29 -17 29 -15 0 -14 2 3 18 18 18 19 18 37 -1 9 -11 17 -26 17 -33 0 -24 23 -64 37 -64 7 0 13 -9 13 -20 0 -11 4 -20 8 -20 5 0 14 -10 20 -22 8 -18 11 -19 11 -6 1 9 -3 20 -9 23 -5 3 -10 28 -10 56 0 38 4 49 16 49 11 0 15 -8 13 -28 -4 -30 18 -92 32 -92 5 0 9 -9 9 -20 0 -11 5 -20 10 -20 6 0 10 -6 10 -14 0 -8 5 -18 12 -22 7 -5 9 -2 5 9 -3 8 -8 33 -11 54 l-5 38 11 -39 c10 -37 23 -58 61 -98 9 -10 13 -18 9 -18 -5 0 -17 9 -27 20 -10 11 -22 20 -26 20 -9 0 22 -33 66 -70 16 -14 23 -17 16 -7 -16 21 1 23 19 2 15 -18 34 -20 24 -2 -5 7 -1 7 12 -3 30 -22 30 -24 9 -17 -19 7 -19 6 -2 -7 14 -11 15 -15 5 -20 -7 -3 0 -2 16 1 18 4 27 2 23 -4 -4 -6 12 -13 40 -17 69 -9 85 -8 77 7 -6 9 -5 9 8 0 8 -7 18 -10 21 -6 4 3 7 2 7 -4 0 -5 16 -18 35 -29 19 -10 35 -24 35 -30 0 -7 6 -14 14 -17 8 -3 14 -15 13 -25 -1 -13 -6 -18 -16 -14 -10 4 -12 1 -7 -7 5 -7 17 -10 28 -8 15 4 17 3 8 -9 -9 -10 -8 -17 4 -29 13 -14 24 -94 17 -137 0 -4 -2 -21 -3 -37 -1 -17 -6 -31 -10 -31 -4 0 -8 -12 -8 -26 0 -14 4 -23 10 -19 6 3 10 0 10 -8 0 -8 14 -20 30 -26 17 -6 44 -16 62 -23 38 -14 227 -17 248 -3 8 5 20 10 26 11 9 2 32 12 119 57 17 8 66 18 110 22 46 4 95 15 115 26 43 22 99 89 111 132 4 18 8 111 6 207 -1 96 2 201 6 233 8 52 13 61 47 85 50 36 78 78 106 162 16 49 20 78 15 102 -15 63 -62 136 -129 199 -58 55 -80 68 -150 92 -97 32 -174 35 -214 9z m340 -294 c15 -15 22 -33 22 -60 0 -21 -4 -38 -10 -38 -5 0 -10 -9 -10 -21 0 -12 -20 -40 -46 -65 -27 -27 -52 -62 -61 -89 -12 -37 -19 -45 -39 -45 -13 0 -24 5 -24 11 0 9 -33 10 -117 6 -118 -5 -215 -27 -230 -50 -4 -7 -33 -30 -63 -52 -30 -21 -82 -63 -114 -93 -32 -29 -70 -58 -83 -63 -33 -12 -97 -2 -158 26 -27 13 -76 26 -107 30 -44 5 -70 15 -105 41 -27 19 -56 37 -65 40 -10 4 -18 14 -18 23 0 9 -3 26 -6 38 -5 18 -1 22 22 25 20 2 32 13 46 39 l18 36 103 6 c57 3 119 13 139 21 21 9 48 16 60 16 26 1 59 18 139 71 38 25 70 38 109 43 30 4 71 11 90 16 19 5 82 14 140 20 118 13 150 23 192 58 64 54 125 57 176 10z m-1356 -240 c3 -27 2 -48 -3 -48 -5 0 -9 10 -9 23 0 13 -5 28 -11 34 -8 8 -8 15 2 26 8 8 15 14 15 13 1 0 4 -22 6 -48z m1210 -426 c-7 -2 -12 -10 -12 -18 0 -8 -7 -14 -16 -14 -8 0 -13 3 -11 8 2 4 7 15 10 24 4 12 12 15 24 11 10 -4 12 -8 5 -11z"></path><path id="pIvuTLWnU" d="M9407 4616 c-2 -6 -1 -22 2 -35 5 -19 8 -21 17 -10 22 28 23 47 4 52 -10 3 -20 0 -23 -7z"></path><path id="pOFArkxTt" d="M9520 4470 c0 -5 7 -10 15 -10 8 0 15 -5 15 -12 0 -6 3 -8 6 -5 8 8 -14 37 -27 37 -5 0 -9 -4 -9 -10z"></path><path id="p1Gl3S7EA1" d="M9760 4347 c0 -2 9 -14 20 -27 22 -25 26 -20 10 11 -9 16 -30 27 -30 16z"></path><path id="plbk7WjGP" d="M2860 4262 c0 -4 -15 -8 -34 -9 -18 -1 -51 -9 -72 -19 -53 -25 -139 -113 -141 -144 -1 -14 -7 -54 -13 -90 -6 -36 -10 -76 -10 -90 5 -128 -20 -292 -54 -358 -9 -17 -16 -41 -16 -52 0 -12 -5 -31 -11 -42 -9 -16 -8 -19 2 -13 9 6 11 3 6 -8 -4 -11 3 -26 19 -42 24 -24 31 -26 102 -22 43 3 88 8 101 12 22 7 23 6 19 -18 -3 -15 -1 -27 3 -27 14 0 64 -51 85 -86 32 -52 97 -120 133 -139 38 -19 88 -16 162 10 56 19 95 19 103 0 6 -17 -2 -71 -16 -98 -12 -24 -21 -122 -14 -152 5 -19 23 -33 73 -55 60 -27 140 -43 104 -21 -13 8 6 14 127 37 12 2 22 11 22 18 0 8 11 21 25 30 14 9 25 25 25 35 0 19 21 41 57 60 16 8 28 7 50 -4 15 -8 34 -15 41 -15 7 0 18 -13 23 -29 7 -20 19 -30 39 -34 21 -5 30 -13 35 -37 4 -19 13 -30 24 -30 13 0 21 -14 31 -55 12 -51 15 -55 42 -55 30 0 33 -4 43 -62 4 -24 11 -38 21 -38 19 0 31 -32 39 -103 6 -53 8 -57 32 -57 45 0 106 -23 111 -42 3 -14 14 -18 51 -18 25 0 53 5 61 10 8 5 11 10 5 10 -5 0 -3 5 5 10 27 18 105 12 130 -10 12 -11 39 -22 59 -26 57 -9 61 -12 61 -43 0 -16 5 -33 10 -36 13 -8 139 -9 147 -1 3 3 6 18 7 33 1 22 6 29 26 31 39 4 70 24 68 41 -2 11 9 18 37 25 22 4 46 10 53 12 6 2 12 15 12 29 0 14 6 26 13 26 6 1 19 3 27 4 8 1 20 3 27 4 6 0 13 11 15 24 3 19 11 23 75 31 67 9 72 11 75 35 3 24 7 26 60 27 31 1 61 5 67 8 6 4 11 31 11 59 0 65 17 126 36 134 8 3 21 21 29 39 11 28 19 34 43 34 21 0 32 7 41 26 13 30 44 29 49 -1 6 -32 22 -45 54 -45 20 0 31 -6 37 -22 5 -14 22 -26 47 -33 28 -8 40 -17 42 -32 2 -15 15 -26 37 -34 18 -7 36 -21 38 -31 7 -27 117 -26 155 1 15 11 43 23 63 26 31 6 39 3 53 -16 9 -13 16 -31 16 -41 0 -20 12 -48 43 -102 17 -31 41 -49 110 -86 48 -26 96 -56 107 -66 57 -58 84 -91 90 -114 3 -14 15 -27 26 -29 10 -2 38 -12 60 -22 23 -10 63 -23 90 -29 68 -15 87 -30 125 -97 28 -51 70 -98 147 -164 25 -23 29 -64 7 -85 -8 -9 -15 -31 -15 -50 0 -31 6 -38 62 -74 33 -22 68 -40 77 -41 71 -5 189 7 265 25 50 13 108 24 129 25 20 1 56 5 80 9 23 4 56 5 72 1 17 -4 51 -7 78 -8 26 0 47 -5 47 -11 0 -5 9 -10 19 -10 11 0 89 -35 173 -79 84 -43 171 -84 193 -91 22 -7 51 -21 64 -31 19 -15 41 -19 107 -19 83 0 83 0 136 43 32 26 66 67 89 107 29 51 45 69 84 89 27 14 57 36 68 48 11 14 30 23 47 23 26 0 30 4 36 37 24 143 25 144 89 183 33 20 77 42 98 49 49 17 137 102 137 134 0 16 8 28 25 35 32 15 72 15 80 2 8 -13 65 -13 65 0 0 6 5 10 10 10 6 0 23 12 39 28 22 20 33 46 46 106 10 43 25 85 34 92 9 8 31 28 50 44 19 17 46 33 60 36 54 11 70 22 64 43 -6 22 10 33 50 35 21 1 22 8 32 139 8 112 13 140 27 148 9 5 20 24 24 41 3 18 12 42 20 53 17 27 54 133 59 171 3 22 0 31 -10 31 -8 0 -11 -5 -8 -11 3 -6 0 -5 -8 2 -16 14 -33 16 -24 2 3 -6 -1 -7 -9 -4 -9 3 -16 10 -16 15 0 14 -28 11 -32 -3 -4 -10 -14 -9 -46 0 -24 7 -48 9 -55 5 -16 -10 -197 -10 -190 0 2 4 -7 5 -21 1 -17 -4 -26 -2 -26 5 0 7 -10 9 -26 5 -20 -5 -25 -4 -19 6 5 9 0 11 -21 8 -16 -3 -23 -3 -16 -1 6 3 12 9 12 13 0 6 -11 5 -26 0 -21 -8 -25 -8 -21 4 4 10 0 12 -15 8 -14 -3 -19 -1 -14 6 4 7 2 12 -3 12 -6 0 -10 5 -8 11 1 6 -5 14 -13 16 -13 4 -13 3 0 -6 9 -6 10 -11 3 -11 -6 0 -20 -3 -30 -6 -14 -4 -15 -4 -4 4 10 7 0 14 -42 26 -55 16 -120 22 -85 8 9 -4 -34 -7 -95 -7 -62 -1 -98 1 -82 4 30 4 30 4 5 12 -15 4 10 6 60 4 70 -2 75 -1 30 5 -41 5 -46 7 -21 8 19 1 32 5 28 8 -3 3 -45 1 -94 -5 -91 -11 -168 -15 -238 -11 -39 2 -39 3 -10 10 28 7 28 8 5 9 -18 1 -21 4 -12 10 8 5 -16 11 -63 15 -61 6 -82 12 -100 30 -29 29 -45 59 -46 88 0 22 -1 22 -9 3 l-9 -20 0 20 c-1 17 -3 17 -11 5 -16 -25 -12 7 5 40 9 18 11 31 5 35 -10 6 -14 -1 -11 -18 1 -5 -4 -5 -10 -1 -9 5 -10 2 -5 -12 5 -14 4 -16 -4 -8 -8 8 -2 28 24 74 l35 64 -26 13 c-17 9 -66 13 -152 13 -122 0 -228 14 -341 45 -30 8 -71 15 -92 15 -21 0 -38 5 -38 10 0 6 -9 10 -20 10 -11 0 -20 5 -20 10 0 6 -9 10 -19 10 -11 0 -23 5 -26 10 -3 6 -17 10 -30 10 -13 0 -27 5 -30 10 -3 6 -17 10 -30 10 -13 0 -26 4 -29 9 -3 4 -40 14 -82 21 -59 10 -81 11 -95 2 -10 -7 -30 -12 -44 -12 -14 0 -25 -4 -25 -10 0 -5 -8 -10 -17 -10 -30 1 41 58 87 70 36 10 56 30 30 30 -5 0 -10 -4 -10 -10 0 -5 -19 -10 -43 -10 -31 0 -46 -5 -57 -20 -8 -11 -20 -20 -26 -20 -7 0 -15 -6 -18 -12 -3 -7 -3 -2 0 12 9 34 79 100 115 107 41 8 36 20 -6 15 -19 -2 -35 -8 -35 -13 0 -5 -9 -9 -20 -9 -11 0 -20 -4 -20 -10 0 -5 -7 -10 -15 -10 -8 0 -15 -9 -15 -20 0 -11 -7 -23 -15 -26 -8 -4 -15 -10 -15 -15 0 -10 -9 -23 -51 -70 -15 -16 -32 -43 -39 -59 -7 -17 -16 -30 -21 -30 -4 0 -10 -10 -12 -22 -4 -20 -4 -20 -6 4 0 15 4 30 9 33 6 3 10 17 10 31 0 15 6 24 15 24 8 0 15 6 15 13 0 6 3 23 7 37 l6 25 -21 -24 c-12 -13 -24 -32 -27 -42 -4 -11 -13 -19 -21 -19 -8 0 -14 -9 -14 -20 0 -10 -11 -30 -23 -42 -13 -13 -27 -36 -31 -51 -3 -15 -13 -27 -21 -27 -8 0 -15 -4 -15 -10 0 -5 -11 -10 -25 -10 -14 0 -25 5 -25 10 0 6 -13 10 -29 10 -21 0 -32 6 -36 20 -3 11 -11 20 -16 20 -5 0 -23 14 -41 30 -27 26 -38 30 -82 29 l-51 -2 40 -7 40 -7 -37 -2 c-36 -1 -63 -21 -40 -29 8 -2 8 -12 -3 -32 -8 -16 -16 -51 -16 -77 -2 -47 -2 -47 -10 15 -4 37 -4 74 1 88 5 13 8 24 5 24 -13 0 -27 -50 -36 -128 -15 -136 -17 -142 -47 -143 -15 0 -21 -3 -14 -6 20 -8 14 -29 -13 -43 -14 -7 -25 -22 -25 -32 0 -20 -26 -25 -33 -5 -4 10 -6 10 -6 0 -1 -7 -8 -13 -16 -13 -8 0 -15 -4 -15 -10 0 -5 -12 -10 -27 -11 -16 0 -22 -3 -15 -6 22 -9 13 -33 -14 -33 -17 0 -40 -15 -72 -48 -26 -26 -60 -54 -77 -62 -16 -8 -37 -23 -46 -32 -9 -10 -21 -18 -28 -18 -6 0 -11 -4 -11 -10 0 -5 -10 -11 -22 -11 -16 -1 -18 -3 -6 -6 16 -4 58 17 86 44 7 7 21 13 31 13 10 0 36 18 59 40 41 40 82 53 82 25 0 -8 -7 -15 -15 -15 -8 0 -15 -4 -15 -10 0 -5 -5 -10 -11 -10 -6 0 -24 -14 -39 -30 -15 -16 -32 -30 -38 -30 -8 0 -98 -45 -242 -122 -45 -24 -2 -13 57 14 23 11 48 18 55 16 7 -3 -2 -11 -20 -19 -18 -7 -32 -17 -32 -21 0 -5 -9 -8 -19 -8 -11 0 -22 -4 -25 -8 -3 -5 8 -6 25 -4 16 2 32 8 35 13 3 5 16 9 29 9 13 0 27 4 30 10 3 5 23 9 43 9 30 -2 32 -3 10 -6 -16 -2 -28 -9 -28 -14 0 -5 -11 -9 -25 -9 -14 0 -25 -4 -25 -9 0 -16 -99 -33 -188 -33 -250 1 -395 13 -408 33 -3 5 -16 9 -29 9 -13 0 -27 5 -30 10 -3 6 -17 10 -31 10 -13 0 -24 5 -24 10 0 6 -7 10 -15 10 -8 0 -23 4 -33 10 -9 5 -35 16 -56 25 -22 8 -36 18 -32 22 3 4 32 -5 64 -19 111 -50 135 -59 139 -54 3 2 -13 12 -34 21 -21 10 -75 35 -120 56 -44 22 -92 39 -105 38 -19 -1 -17 -3 10 -10 33 -10 44 -29 17 -29 -9 0 -35 9 -57 20 -23 11 -49 20 -58 20 -9 0 -20 4 -26 9 -5 5 -47 22 -94 37 -92 29 -136 49 -158 70 -18 19 -2 18 26 -2 12 -8 28 -13 35 -11 7 3 4 8 -8 13 -11 4 -27 15 -35 24 -8 9 -22 20 -30 24 -21 9 20 0 44 -10 38 -15 7 12 -41 36 -37 18 -64 24 -123 24 -41 1 -88 -3 -105 -8 l-30 -9 23 21 c13 12 22 27 19 34 -4 10 -6 10 -6 1 -1 -8 -16 -13 -41 -13 -22 0 -40 -4 -40 -10 0 -5 -16 -10 -35 -10 -19 0 -35 -4 -35 -10 0 -5 -9 -10 -20 -10 -11 0 -20 5 -20 10 0 6 -7 10 -15 10 -25 0 -65 43 -80 86 -10 26 -14 32 -15 17 0 -12 -4 -24 -9 -27 -4 -3 -5 12 -1 34 4 22 3 37 -1 34 -5 -3 -9 0 -9 6 0 6 -4 9 -9 6 -5 -4 -7 2 -4 13 3 10 -5 28 -19 43 -13 13 -17 17 -10 8 22 -29 13 -32 -21 -6 -17 13 -46 30 -62 35 l-30 11 25 -20 c14 -11 21 -20 16 -20 -20 0 -156 54 -235 95 -47 24 -111 48 -141 54 l-55 10 75 -4 c72 -3 73 -3 30 8 l-45 11 35 6 c34 6 34 6 10 14 -29 10 -199 12 -250 3 -35 -6 -35 -6 5 8 l40 15 -60 -8 c-110 -13 -168 -8 -227 21 -31 15 -62 35 -69 44 -8 9 4 5 26 -10 41 -28 61 -35 50 -17 -3 6 -1 10 5 10 7 0 9 -7 6 -16 -5 -14 0 -15 31 -10 27 4 32 3 18 -4 -25 -11 1 -12 30 -1 17 7 16 9 -10 15 -58 15 -119 49 -169 94 -28 26 -40 33 -26 17 14 -16 32 -35 40 -42 8 -7 11 -13 5 -13 -14 0 -135 116 -135 129 0 16 -113 131 -128 131 -7 0 -20 7 -28 15 -9 8 -13 15 -9 15 14 0 81 -32 100 -48 13 -11 12 -8 -4 11 -14 15 -30 27 -38 27 -7 0 -13 5 -13 10 0 6 -13 10 -30 10 -16 0 -30 -4 -30 -8z m140 -132 c16 -16 30 -35 30 -42 0 -8 9 -20 20 -28 11 -8 20 -20 20 -26 0 -6 9 -14 20 -17 11 -3 20 -10 20 -17 0 -15 -52 22 -79 57 -31 41 -71 103 -66 103 2 0 18 -13 35 -30z m515 -290 c13 -6 -7 -8 -60 -8 -64 1 -72 2 -40 8 56 10 77 10 100 0z m3155 -65 c25 -30 48 -55 53 -55 4 0 7 -7 7 -15 0 -15 -64 46 -101 98 -36 49 -5 28 41 -28z m1145 13 c28 -5 93 -11 145 -14 52 -2 99 -9 104 -14 7 -7 -5 -9 -34 -5 -25 2 -84 7 -131 10 -85 5 -145 19 -164 38 -7 7 -3 7 10 2 11 -4 43 -12 70 -17z m-885 -43 c0 -24 -5 -35 -14 -35 -8 0 -17 -8 -19 -17 -2 -10 -2 -7 0 7 3 14 5 37 5 53 1 16 6 27 14 27 9 0 14 -12 14 -35z m-3783 -60 c18 -8 33 -18 33 -23 0 -11 107 -19 343 -28 142 -6 157 -5 157 10 0 15 9 16 78 11 42 -4 86 -10 97 -14 11 -5 47 -16 80 -26 84 -24 115 -48 115 -88 0 -18 7 -43 16 -56 12 -17 19 -60 24 -169 l8 -147 41 -35 c23 -20 41 -42 41 -50 0 -8 12 -22 28 -31 198 -117 199 -118 206 -187 8 -88 9 -198 1 -221 -3 -12 -15 -21 -26 -21 -10 0 -19 -4 -19 -10 0 -5 -5 -10 -10 -10 -6 0 -30 -9 -52 -20 -45 -22 -88 -26 -88 -9 0 13 -89 99 -102 99 -13 0 -38 26 -38 39 0 6 -4 11 -9 11 -5 0 -29 20 -53 44 -24 24 -53 45 -63 47 -13 3 -23 18 -30 45 -5 23 -22 57 -37 75 -16 18 -28 45 -28 59 0 103 -157 156 -262 90 -27 -17 -48 -34 -48 -39 0 -5 -13 -16 -29 -24 -28 -14 -30 -14 -39 12 -6 14 -13 52 -16 84 -6 77 -37 123 -91 138 -26 7 -90 9 -178 6 -76 -3 -149 -2 -162 3 -25 9 -108 112 -119 147 -7 22 11 111 25 128 5 5 9 26 9 46 0 30 7 43 34 67 19 17 44 33 55 37 12 3 21 13 21 22 0 17 26 13 87 -12z m960 -42 c24 -22 47 -63 39 -71 -3 -3 -6 0 -6 6 0 6 -14 27 -31 47 -33 38 -34 46 -2 18z m4126 -110 c5 -26 4 -26 -9 -8 -16 22 -18 35 -5 35 5 0 11 -12 14 -27z m-1514 -45 c22 -57 95 -103 199 -128 28 -6 52 -17 52 -24 0 -6 9 -17 20 -24 11 -7 20 -18 20 -26 0 -7 6 -19 14 -25 16 -13 100 -157 110 -187 3 -12 24 -41 46 -65 22 -24 40 -47 40 -50 0 -3 8 -16 19 -27 15 -18 29 -22 84 -22 87 0 147 24 147 60 0 6 6 17 13 25 9 8 16 49 20 102 5 72 10 91 27 105 11 9 20 21 20 27 0 7 22 35 50 64 27 29 50 57 50 63 0 20 32 25 51 8 10 -9 21 -30 24 -48 3 -17 12 -47 20 -66 7 -19 21 -60 30 -90 35 -113 89 -150 221 -150 46 0 92 4 102 9 9 5 41 19 70 32 28 12 52 28 52 35 0 6 11 15 25 18 14 4 25 11 25 16 0 6 13 10 29 10 16 0 31 6 34 13 3 8 27 21 54 31 26 10 66 26 88 36 22 9 64 23 93 31 28 7 52 16 52 20 0 3 14 9 31 13 18 3 37 12 43 20 28 34 219 64 236 37 4 -8 36 -15 74 -18 36 -3 66 -10 66 -14 0 -5 6 -9 14 -9 8 0 16 -4 18 -8 4 -10 122 -38 224 -54 61 -9 84 -17 100 -35 12 -12 26 -23 32 -23 21 0 31 -35 22 -76 -5 -21 -10 -105 -10 -186 l0 -148 -28 0 c-21 0 -40 -12 -71 -45 -35 -38 -48 -45 -80 -45 -21 0 -74 -11 -120 -25 -65 -19 -87 -22 -109 -14 -46 18 -202 16 -242 -3 -19 -9 -64 -26 -100 -38 -36 -12 -74 -25 -85 -30 -11 -5 -46 -11 -79 -14 -91 -10 -96 -15 -96 -94 2 -101 -13 -134 -105 -246 -72 -86 -76 -87 -407 -92 -233 -3 -295 -7 -319 -19 -16 -9 -29 -20 -29 -25 0 -6 -7 -10 -15 -10 -8 0 -15 -4 -15 -10 0 -5 -7 -10 -15 -10 -8 0 -15 -4 -15 -8 0 -10 -136 -32 -190 -32 -43 0 -123 45 -168 94 -35 37 -89 140 -116 218 -26 77 -54 131 -91 170 -29 32 -46 39 -115 54 -46 10 -102 30 -132 48 -28 17 -60 36 -71 43 -11 6 -29 33 -39 60 -20 53 -17 134 8 206 7 21 18 77 25 125 6 48 22 124 36 170 26 85 26 77 7 265 -5 40 -3 57 5 57 6 0 15 -10 20 -22z m1551 -8 c11 -11 30 -20 43 -21 12 0 16 -3 9 -6 -18 -7 -69 15 -76 33 -7 19 0 18 24 -6z m-1994 -215 c18 -13 17 -14 -18 -15 -21 0 -38 -4 -38 -10 0 -5 -9 -10 -21 -10 -17 0 -18 2 -7 13 14 14 49 36 59 37 3 0 14 -7 25 -15z m-701 -225 c-11 -5 -31 -8 -45 -8 -23 0 -22 1 5 8 42 11 65 11 40 0z m278 -17 c-18 -2 -48 -2 -65 0 -18 2 -4 4 32 4 36 0 50 -2 33 -4z m-115 -72 c94 -20 116 -37 126 -94 6 -34 5 -38 -21 -48 -52 -20 -93 -4 -148 56 -28 30 -55 55 -61 55 -17 0 -33 22 -27 36 7 18 31 17 131 -5z m-603 -141 c3 -5 14 -10 24 -10 11 0 21 -10 25 -22 9 -35 8 -38 -14 -38 -11 0 -20 -5 -20 -10 0 -16 -63 -2 -77 17 -7 9 -13 27 -13 39 0 12 6 25 13 27 21 9 56 7 62 -3z m-295 -135 c17 -9 30 -22 30 -29 0 -8 6 -16 14 -19 12 -5 12 -11 0 -47 -24 -68 -42 -88 -87 -97 -32 -7 -43 -14 -45 -30 -3 -17 -11 -23 -40 -25 -35 -3 -37 -5 -40 -40 -3 -36 -5 -38 -37 -38 -29 0 -33 3 -38 33 -2 17 -14 56 -25 86 -12 30 -19 58 -16 63 4 5 30 25 60 44 30 19 54 39 54 44 0 6 7 10 15 10 8 0 15 4 15 9 0 5 8 12 18 15 9 4 33 13 52 21 19 8 36 14 38 14 2 1 16 -6 32 -14z"></path><path id="pHdWccBfF" d="M7448 3963 c12 -2 22 -10 22 -18 0 -12 21 -25 41 -25 5 0 9 7 9 15 0 8 -9 15 -19 15 -11 0 -23 5 -26 10 -3 6 -16 9 -28 9 -22 -2 -22 -2 1 -6z"></path><path id="p11hcG5uRb" d="M6863 3924 c-12 -12 -19 -25 -16 -28 10 -10 43 -7 43 4 0 6 11 10 25 10 34 0 32 27 -3 32 -19 3 -34 -3 -49 -18z"></path><path id="p12naDOZlX" d="M7530 3920 c0 -5 8 -10 18 -10 10 0 27 -7 38 -15 10 -8 31 -15 46 -15 40 0 128 -22 128 -32 0 -4 7 -8 15 -8 8 0 12 6 9 13 -4 12 -29 20 -139 48 -22 6 -54 15 -71 20 -38 11 -44 11 -44 -1z"></path><path id="pJUm53hg6" d="M6810 3880 c0 -5 -13 -10 -30 -10 -16 0 -30 -4 -30 -10 0 -5 -7 -10 -15 -10 -8 0 -15 5 -15 10 0 6 -16 10 -35 10 -38 0 -50 -20 -12 -20 12 0 42 -2 67 -4 65 -6 100 3 100 25 0 11 -7 19 -15 19 -8 0 -15 -4 -15 -10z"></path><path id="pztcniFrj" d="M8230 3883 c19 -3 39 -8 45 -13 5 -4 26 -11 45 -15 19 -4 45 -13 58 -21 30 -19 29 0 -3 31 -22 23 -31 25 -102 23 -43 0 -62 -3 -43 -5z"></path><path id="pLqSxbZhT" d="M6422 3830 c-12 -11 -26 -20 -32 -20 -5 0 -10 -7 -10 -15 0 -19 -44 -65 -61 -65 -18 0 -49 -41 -48 -64 1 -17 2 -18 6 -3 3 12 15 17 44 17 21 0 39 5 39 10 0 6 9 10 20 10 13 0 20 7 20 19 0 11 7 26 15 35 8 8 15 24 15 36 0 12 5 30 10 41 13 24 9 24 -18 -1z"></path><path id="pYKep89SB" d="M7830 3840 c41 -9 145 -21 115 -13 -11 3 -24 9 -29 14 -6 5 -35 9 -65 8 -52 -1 -53 -2 -21 -9z"></path><path id="pMEwJtWqQ" d="M8108 3823 c17 -2 47 -2 65 0 17 2 3 4 -33 4 -36 0 -50 -2 -32 -4z"></path><path id="p1AXM35Yc6" d="M8270 3800 c0 -5 7 -10 15 -10 13 0 14 -4 4 -22 -12 -23 -12 -23 8 -3 16 16 17 22 7 32 -15 15 -34 17 -34 3z"></path><path id="p18csxzyK1" d="M3830 3784 c0 -9 82 -55 93 -51 6 2 -13 15 -41 29 -29 14 -52 24 -52 22z"></path><path id="pOaPkU6WB" d="M6442 3719 c-2 -31 -33 -69 -56 -69 -21 0 -46 -23 -46 -43 0 -18 -48 -71 -72 -80 -10 -3 -18 -13 -18 -22 0 -8 -7 -15 -15 -15 -8 0 -15 -4 -15 -10 0 -5 13 -10 29 -10 21 0 42 12 70 39 23 22 41 44 41 50 0 6 5 11 10 11 6 0 10 6 10 14 0 8 9 17 19 21 26 8 53 69 48 108 -3 26 -4 27 -5 6z"></path><path id="pvBGaco9X" d="M8265 3710 c-10 -11 -21 -17 -26 -15 -4 3 -10 1 -13 -4 -15 -24 14 -17 39 9 16 17 26 30 23 30 -3 0 -13 -9 -23 -20z"></path><path id="pJiR9zfBw" d="M6210 3565 c0 -8 -9 -15 -20 -15 -14 0 -20 -6 -19 -22 1 -16 3 -18 6 -7 2 10 13 19 24 22 16 4 29 37 14 37 -3 0 -5 -7 -5 -15z"></path><path id="pJhHFSWBh" d="M4220 3548 c0 -40 76 -68 142 -52 29 7 25 9 -36 15 -56 5 -72 10 -87 30 -15 19 -19 20 -19 7z"></path><path id="ptDyzyv3R" d="M4298 3543 c12 -2 32 -2 45 0 12 2 2 4 -23 4 -25 0 -35 -2 -22 -4z"></path><path id="pJs9CzsaF" d="M4530 3480 c0 -5 11 -10 25 -10 14 0 25 5 25 10 0 6 -11 10 -25 10 -14 0 -25 -4 -25 -10z"></path><path id="p1DLOeudbN" d="M8623 3443 c9 -2 25 -2 35 0 9 3 1 5 -18 5 -19 0 -27 -2 -17 -5z"></path><path id="p651WPZhh" d="M8538 3433 c12 -2 32 -2 45 0 12 2 2 4 -23 4 -25 0 -35 -2 -22 -4z"></path><path id="pYhlAoa83" d="M6117 3373 c-12 -11 -8 -23 8 -23 8 0 15 7 15 15 0 16 -12 20 -23 8z"></path><path id="pqDaatj8T" d="M4980 3260 c8 -5 24 -9 35 -9 l20 0 -20 9 c-11 5 -27 9 -35 9 -13 1 -13 0 0 -9z"></path><path id="p10Gz35KAg" d="M5441 3079 c13 -8 97 -13 88 -5 -2 2 -26 6 -53 9 -30 3 -43 1 -35 -4z"></path><path id="pzhzENLNH" d="M5688 3063 c12 -2 30 -2 40 0 9 3 -1 5 -23 4 -22 0 -30 -2 -17 -4z"></path></g></g><g id="l4ZdQTyzAeYHo2B3Mkv7dXE" fill="rgb(247,250,253)" style="transform: none;"><g><path id="p93w5iRHi" d="M10997 4788 c4 -8 -11 -11 -22 -5 -2 1 -12 -8 -20 -21 -17 -23 -84 -62 -107 -62 -9 0 -9 3 2 10 12 8 11 10 -7 10 -12 0 -24 -4 -27 -9 -3 -4 -18 -6 -33 -4 -22 4 -25 2 -13 -6 13 -9 12 -11 -5 -11 -11 -1 -50 -4 -87 -8 -37 -5 -64 -4 -61 1 6 10 -57 -1 -109 -19 -20 -7 -63 -30 -94 -51 -82 -55 -116 -72 -142 -73 -12 0 -38 -6 -56 -14 -43 -18 -172 -31 -138 -14 25 13 29 28 6 28 -25 0 -124 -50 -124 -63 0 -7 -9 -23 -20 -37 l-19 -25 10 38 c6 22 9 41 7 43 -2 2 -16 -16 -32 -39 -23 -36 -27 -50 -23 -94 2 -29 0 -53 -5 -53 -5 0 -3 -10 3 -22 7 -13 10 -25 8 -27 -2 -2 6 -5 19 -6 21 -2 21 -1 5 18 -10 11 5 3 33 -19 28 -21 49 -42 47 -46 -2 -4 3 -5 11 -2 9 3 16 1 16 -5 0 -6 12 -11 28 -11 56 2 116 -11 151 -31 26 -15 57 -22 121 -25 l86 -4 70 63 c38 35 94 80 124 102 30 22 59 45 63 52 20 32 271 69 287 43 4 -6 16 -12 28 -15 12 -2 26 -7 32 -10 19 -12 48 15 63 59 9 28 34 63 61 90 25 24 46 53 46 64 0 11 5 22 10 24 6 2 11 31 13 66 2 60 0 64 -33 95 -33 32 -39 33 -107 33 -39 -1 -69 -4 -66 -8z"></path><path id="purEJiHY0" d="M11001 4178 c-1 -9 -9 -23 -19 -30 -10 -7 -26 -31 -37 -53 -10 -22 -20 -34 -22 -27 -7 19 -23 14 -23 -8 0 -11 5 -19 12 -17 6 1 14 -7 16 -18 2 -11 11 -26 20 -32 21 -17 66 -17 56 -1 -5 7 -2 9 9 5 25 -9 38 17 33 66 -5 46 -44 146 -45 115z"></path><path id="p1F9nJeC1f" d="M2990 3725 c-10 -12 -9 -15 6 -15 14 0 11 -5 -12 -19 -18 -11 -43 -35 -58 -54 -27 -35 -34 -53 -16 -42 6 3 10 -3 10 -14 0 -11 -4 -22 -9 -25 -14 -9 -34 -123 -28 -165 6 -48 86 -157 126 -173 16 -6 76 -7 161 -3 88 5 149 3 175 -4 55 -15 85 -61 92 -143 6 -58 26 -128 38 -128 15 0 104 53 108 64 3 7 26 25 52 41 46 26 49 27 98 14 57 -16 97 -60 97 -109 0 -14 12 -41 28 -59 15 -18 32 -52 37 -75 7 -27 17 -42 30 -45 10 -2 39 -23 63 -47 24 -24 48 -44 53 -44 5 0 9 -5 9 -10 0 -6 12 -23 26 -38 15 -15 23 -20 18 -12 -7 13 -5 13 9 1 9 -7 14 -17 11 -22 -3 -5 1 -6 8 -4 14 6 47 -26 67 -64 10 -18 18 -20 59 -15 26 3 66 14 89 25 24 10 47 19 53 19 5 0 10 5 10 10 0 6 8 10 19 10 28 0 45 50 36 106 -5 33 -3 49 6 54 9 6 9 17 0 51 -7 24 -14 67 -16 94 -4 41 -11 55 -36 78 -18 15 -37 27 -43 27 -6 0 -4 4 3 9 8 5 22 6 30 2 9 -5 33 -11 53 -15 20 -4 38 -11 40 -17 2 -7 9 -5 17 5 11 13 11 16 -2 16 -8 0 -17 7 -21 15 -3 9 -18 15 -39 15 -18 0 -57 6 -87 14 -32 8 -56 11 -58 5 -4 -10 -47 17 -47 30 0 4 -28 32 -62 60 -35 29 -62 55 -61 59 1 4 -1 24 -6 45 -4 22 -2 61 4 91 9 45 8 60 -6 95 -9 23 -14 50 -11 61 3 11 1 18 -3 15 -5 -3 -14 3 -20 14 -8 17 -8 19 4 15 24 -9 -18 70 -46 88 -13 9 -50 23 -83 33 -33 10 -76 25 -95 35 -45 22 -129 45 -137 36 -3 -3 3 -6 13 -6 11 0 29 -7 40 -16 18 -15 18 -15 -6 -8 -47 13 -134 12 -160 -3 l-25 -14 28 4 c15 2 27 0 27 -4 0 -13 -144 -11 -275 2 -74 8 -135 21 -187 40 -88 33 -177 39 -198 14z m1354 -710 c4 -13 2 -14 -14 -5 -23 13 -26 20 -6 20 8 0 16 -7 20 -15z"></path><path id="p1D9RLCMOU" d="M7660 3600 l-25 -8 25 -3 c70 -7 78 -6 73 8 -6 14 -34 16 -73 3z"></path><path id="p17tYck0TP" d="M6665 3536 c-17 -26 -16 -61 7 -178 10 -52 8 -65 -18 -145 -15 -48 -27 -91 -26 -95 4 -18 -20 -162 -34 -201 -8 -23 -17 -80 -20 -127 -6 -95 15 -171 53 -193 11 -7 42 -25 68 -41 26 -16 79 -37 118 -46 40 -10 78 -19 86 -21 22 -6 90 -86 107 -127 9 -21 22 -57 31 -82 23 -69 82 -183 100 -197 9 -7 14 -13 11 -13 -4 0 5 -13 20 -28 15 -16 29 -28 32 -28 3 0 25 -10 50 -23 45 -24 131 -31 205 -17 17 3 49 9 73 12 23 4 42 11 42 16 0 5 5 6 10 3 6 -3 13 1 16 9 3 9 12 16 20 16 8 0 14 4 14 10 0 5 14 17 31 26 25 13 53 15 155 10 68 -3 124 -2 124 2 0 4 68 6 150 4 183 -3 222 9 291 91 94 111 128 193 114 276 -8 48 5 58 91 67 33 3 68 9 79 14 11 5 49 18 85 30 36 12 81 29 100 38 39 18 140 19 184 2 41 -15 75 -12 166 15 46 14 100 25 121 25 32 0 45 7 80 45 33 35 49 45 69 43 l25 -3 6 175 c4 96 12 192 18 212 10 32 9 42 -5 63 -9 14 -24 25 -33 25 -14 0 -14 2 -1 10 12 8 10 10 -10 11 -23 0 -23 1 -5 9 11 5 15 9 8 9 -6 1 -62 10 -125 20 -146 26 -226 46 -207 54 7 3 2 4 -13 1 -18 -4 -28 -2 -28 6 0 6 -4 8 -10 5 -5 -3 -10 -1 -10 4 0 6 -9 11 -21 11 -12 0 -17 4 -13 11 5 8 1 8 -14 0 -26 -14 -35 -14 -26 0 5 8 -1 10 -20 7 -20 -4 -24 -2 -16 7 8 9 4 11 -17 8 -17 -3 -23 -1 -17 4 7 4 -26 9 -75 9 -67 1 -76 0 -41 -6 l45 -7 -41 -1 c-51 -2 -176 -41 -169 -53 4 -5 -9 -6 -27 -4 -26 4 -29 3 -13 -4 17 -8 16 -10 -12 -10 -17 -1 -39 -8 -47 -17 -10 -10 -24 -13 -38 -9 -18 5 -20 4 -8 -4 13 -9 13 -11 -3 -11 -9 0 -36 -8 -60 -19 -23 -10 -68 -29 -99 -41 -32 -12 -56 -25 -54 -29 2 -3 -8 -7 -22 -8 -15 0 -28 -6 -30 -12 -2 -5 -19 -15 -39 -22 -21 -6 -31 -14 -24 -18 7 -4 -11 -17 -41 -30 -29 -13 -61 -27 -70 -32 -34 -17 -124 -10 -168 13 -51 28 -73 57 -95 128 -9 30 -23 71 -30 90 -8 19 -16 49 -20 65 -8 36 -42 75 -66 75 -26 0 -69 -21 -69 -34 0 -6 -23 -34 -50 -63 -28 -29 -50 -58 -50 -65 0 -7 -9 -19 -20 -26 -13 -8 -20 -23 -20 -42 0 -17 -3 -30 -7 -30 -5 0 -7 -26 -5 -58 3 -44 0 -63 -12 -75 -9 -8 -16 -21 -16 -27 0 -51 -134 -81 -171 -38 -11 11 -19 24 -19 27 0 3 -18 26 -40 50 -22 24 -42 53 -46 65 -9 28 -83 156 -106 182 -10 11 -16 23 -13 26 4 3 -6 15 -21 27 -15 11 -21 21 -13 21 31 0 -11 19 -79 35 -74 18 -139 53 -134 73 1 7 -4 11 -10 10 -7 -2 -12 3 -10 10 1 6 -4 11 -10 10 -7 -2 -12 3 -10 10 2 11 -53 52 -70 52 -4 0 -15 -11 -23 -24z"></path><path id="p1Ha8LCFc3" d="M4530 3063 c14 -2 35 -9 47 -15 25 -12 39 -6 28 11 -3 6 -27 10 -53 10 -26 -1 -36 -4 -22 -6z"></path><path id="pSeErfnJH" d="M5565 3010 c-4 -7 3 -8 22 -4 38 9 42 14 10 14 -14 0 -29 -5 -32 -10z"></path><path id="p5xPCcUNI" d="M5665 3010 c25 -6 20 -8 -27 -9 -52 -1 -58 -3 -64 -25 -9 -39 -1 -70 24 -82 12 -6 45 -35 72 -65 l50 -54 81 0 c91 0 115 15 105 68 -4 18 -2 26 5 22 6 -4 7 3 3 22 -4 15 -7 28 -8 28 -1 0 -13 11 -28 24 -18 16 -56 31 -105 42 -43 9 -67 18 -53 19 24 2 23 3 -5 10 -16 4 -41 8 -55 8 -22 0 -22 -1 5 -8z"></path><path id="p10Y9gMagI" d="M4740 2705 c-19 -8 -43 -17 -52 -21 -10 -3 -18 -10 -18 -15 0 -5 -4 -9 -10 -9 -5 0 -20 -10 -33 -22 -14 -13 -43 -35 -66 -50 -49 -33 -53 -63 -20 -148 12 -30 23 -68 24 -85 2 -25 7 -31 36 -37 19 -4 48 -5 66 -2 28 5 32 10 35 43 3 34 5 36 40 39 29 2 37 8 40 25 2 16 13 23 45 30 44 8 73 42 87 99 4 19 15 30 32 34 25 6 25 7 4 21 -11 8 -18 18 -15 23 3 5 -3 15 -15 22 -11 7 -20 18 -20 25 0 18 -54 43 -92 42 -18 0 -49 -6 -68 -14z"></path><path id="poGDNQw2X" d="M4945 2620 c3 -5 18 -10 32 -10 32 0 28 5 -10 14 -19 4 -26 3 -22 -4z"></path></g></g></svg>