<svg class="img-fluid" id="outputsvg" xmlns="http://www.w3.org/2000/svg" style="transform: matrix(1, 0, 0, 1, 0, 0); transform-origin: 50% 50%; cursor: move; transition: transform 200ms ease-in-out;" width="389" height="244" viewBox="0 0 3890 2440"><g id="lb7BDGKLp6tHYq9Cpv896S" fill="rgb(168,215,246)" style="transform: none;"><g><path id="pDithpBjt" d="M770 2430 c0 -5 -26 -10 -57 -12 -37 -2 -58 -8 -61 -17 -4 -11 4 -13 35 -9 32 5 51 0 93 -23 75 -41 107 -38 150 11 19 22 40 40 47 40 6 0 15 5 18 10 4 6 -35 10 -109 10 -67 0 -116 -4 -116 -10z"></path><path id="phhkfoMYT" d="M1347 2433 c-16 -15 -5 -24 25 -21 41 4 50 28 11 28 -17 0 -33 -3 -36 -7z"></path><path id="p7ZYDLxbA" d="M1430 2424 c0 -13 3 -14 15 -4 11 9 22 9 46 1 18 -6 44 -11 58 -11 14 0 57 -7 94 -16 76 -19 73 -34 -5 -34 -26 0 -50 -5 -54 -11 -4 -7 -41 -10 -103 -9 -128 4 -144 2 -165 -13 -17 -13 -16 -15 18 -36 24 -15 46 -21 64 -18 15 3 34 2 42 -3 8 -4 41 -11 72 -14 54 -7 57 -6 61 16 l4 23 2 -23 c1 -19 5 -22 24 -17 12 4 31 16 43 27 20 18 24 18 65 4 36 -13 65 -14 157 -6 62 5 116 11 121 14 4 3 23 1 42 -4 35 -10 105 8 189 48 l35 16 -75 12 c-41 6 -86 8 -100 5 -14 -4 -76 -5 -139 -3 l-113 4 33 34 33 34 -232 0 c-207 0 -232 -2 -232 -16z"></path><path id="p3lDoA03c" d="M1913 2433 c9 -2 25 -2 35 0 9 3 1 5 -18 5 -19 0 -27 -2 -17 -5z"></path><path id="phaZLp7Wj" d="M3212 2426 c10 -7 46 -16 80 -19 35 -3 91 -13 126 -22 52 -13 68 -14 97 -4 30 11 37 10 53 -4 10 -9 24 -17 30 -17 7 0 12 -9 12 -20 0 -27 32 -42 65 -30 18 7 33 7 45 0 26 -14 62 -12 83 5 12 8 31 11 53 8 31 -5 34 -3 34 19 0 23 -7 27 -73 42 -40 10 -84 16 -97 15 -63 -6 -90 1 -90 21 0 19 -7 20 -217 20 -183 -1 -215 -3 -201 -14z"></path><path id="pkUgVL1PF" d="M2418 2353 c-22 -5 -23 -26 -4 -46 13 -13 9 -14 -29 -9 -49 5 -95 -3 -95 -18 0 -12 152 -5 177 9 10 5 33 14 51 20 27 8 32 7 32 -6 0 -12 7 -14 33 -8 17 4 42 8 55 10 27 4 52 23 52 40 0 9 -33 12 -127 12 -71 0 -136 -2 -145 -4z"></path><path id="psDP3kYp4" d="M3145 2312 c-4 -4 -55 -7 -113 -8 -59 0 -116 -4 -127 -7 -11 -3 -53 -6 -93 -6 -69 -1 -73 -2 -70 -23 3 -18 -5 -23 -56 -37 -94 -25 -85 -46 29 -70 33 -7 77 -19 98 -26 21 -8 45 -11 53 -8 8 3 20 1 27 -5 7 -6 44 -16 82 -23 39 -6 79 -18 90 -25 11 -7 57 -24 103 -39 136 -44 302 -43 405 2 32 14 41 14 63 2 22 -11 30 -11 54 3 15 9 32 13 37 9 4 -5 43 -3 86 3 l77 10 0 41 c0 40 -2 42 -40 54 -23 7 -40 18 -40 26 0 10 -10 15 -30 15 -16 0 -53 14 -80 31 -47 29 -55 31 -98 22 -26 -5 -65 -6 -87 -2 -22 4 -62 5 -88 2 -39 -5 -51 -2 -67 14 -13 15 -38 23 -85 28 -36 4 -79 10 -95 15 -16 4 -31 5 -35 2z m542 -152 c14 -11 31 -20 38 -20 7 0 15 -9 18 -20 4 -15 14 -20 38 -20 18 0 30 -2 27 -5 -3 -3 -56 -6 -118 -6 -93 0 -120 -4 -153 -20 -83 -43 -278 -33 -389 19 -49 22 -52 48 -5 36 83 -22 430 4 481 35 39 24 34 24 63 1z"></path><path id="pY2pcKiLL" d="M114 2225 c-4 -10 -20 -15 -44 -15 -56 0 -70 -8 -70 -41 0 -27 3 -29 37 -29 34 0 35 -1 17 -14 -19 -14 -19 -15 1 -21 11 -4 30 -10 41 -15 15 -6 31 -3 53 11 32 19 33 23 36 97 1 41 0 42 -32 42 -21 0 -36 -6 -39 -15z"></path><path id="pRZEtuOAd" d="M2195 2230 c-3 -6 1 -13 9 -16 21 -8 49 3 41 16 -8 13 -42 13 -50 0z"></path><path id="p15AIUlOdd" d="M1108 2198 c-37 -23 -52 -43 -23 -32 8 3 21 -1 30 -10 9 -8 22 -13 31 -9 8 3 23 -2 33 -11 25 -23 68 -11 104 27 30 32 24 46 -18 47 -11 0 -42 2 -70 5 -40 4 -57 1 -87 -17z"></path><path id="pfK4lXQtj" d="M1458 2173 c-21 -2 -38 -8 -38 -13 0 -5 -7 -16 -16 -25 -9 -9 -14 -19 -10 -22 12 -13 181 -8 214 6 l33 14 -22 23 c-23 25 -55 28 -161 17z"></path><path id="pfutAjt0E" d="M260 2153 c-28 -5 -82 -52 -74 -65 3 -4 26 -8 51 -8 34 0 55 7 80 26 59 45 36 63 -57 47z"></path><path id="p1123QBUh1" d="M412 2129 c-13 -5 -22 -15 -19 -21 6 -17 81 -15 102 2 16 13 16 15 -2 21 -25 10 -53 10 -81 -2z"></path><path id="pxQUJv7I8" d="M2304 1955 c21 -16 86 -21 86 -6 0 8 -57 21 -90 21 -11 -1 -10 -4 4 -15z"></path><path id="pxOdJJLjd" d="M3150 1963 c0 -14 53 -34 63 -24 6 6 18 5 32 -1 13 -6 36 -7 52 -3 27 6 27 7 9 21 -21 15 -156 21 -156 7z"></path><path id="pODR2QOoI" d="M2523 1914 c1 -19 7 -34 13 -34 7 0 19 -11 28 -25 13 -20 25 -25 61 -25 41 0 143 22 165 35 15 9 12 37 -2 33 -7 -3 -33 5 -58 17 -31 16 -71 24 -127 28 l-81 5 1 -34z"></path><path id="pM2U17uq2" d="M1350 1911 c-89 -23 -90 -40 -9 -119 55 -54 67 -60 118 -68 31 -4 84 -8 117 -8 52 0 67 4 98 28 20 15 34 31 31 35 -8 13 43 54 59 48 19 -7 19 -5 5 25 -14 32 -76 60 -115 52 -18 -3 -55 0 -85 9 -71 19 -139 19 -219 -2z m338 -60 c10 -2 -42 -56 -75 -78 -37 -25 -39 -25 -103 -13 -100 20 -105 36 -15 45 68 6 75 9 75 28 0 20 5 22 57 20 32 -1 59 -2 61 -2z"></path><path id="pDeu2WKMW" d="M3078 1913 c-27 -7 -22 -48 8 -72 34 -27 41 -26 88 9 22 17 50 30 63 30 14 0 22 4 18 10 -4 6 -14 10 -23 9 -10 -1 -24 1 -32 4 -23 9 -103 15 -122 10z"></path><path id="pGUAgHMb2" d="M0 1626 l0 -66 29 0 c16 0 46 6 68 14 49 17 219 40 233 31 5 -3 10 -11 10 -18 0 -6 12 -24 27 -39 21 -22 36 -28 70 -28 35 0 43 -3 43 -19 0 -15 -11 -19 -61 -25 -34 -3 -81 -6 -104 -6 -29 0 -45 -5 -49 -15 -7 -20 -25 -19 -93 5 -32 11 -83 20 -115 20 -55 0 -58 -1 -58 -24 0 -33 16 -41 47 -25 20 11 26 11 33 -1 6 -8 10 -25 10 -37 0 -20 -4 -22 -32 -16 -18 3 -34 10 -36 15 -10 24 -22 2 -22 -38 0 -40 2 -45 15 -34 12 10 18 10 30 0 12 -10 21 -10 41 -1 14 6 39 11 57 11 18 0 48 4 67 10 19 5 51 12 70 15 19 3 67 18 105 32 39 14 82 27 97 30 52 10 82 75 58 128 -4 11 -11 28 -14 39 -4 13 -11 16 -24 11 -45 -19 -64 -17 -93 11 -16 15 -29 33 -29 39 0 16 -94 27 -154 19 -27 -4 -51 -2 -59 4 -7 6 -47 14 -90 18 l-77 7 0 -67z"></path><path id="pXN7uhmWc" d="M711 1661 c-19 -3 -36 -11 -38 -17 -5 -16 73 -27 98 -13 12 6 36 8 55 4 49 -9 42 2 -8 13 -24 5 -50 12 -58 14 -8 3 -30 3 -49 -1z"></path><path id="p1AQJxlTEn" d="M2150 1637 c0 -7 5 -18 11 -24 9 -9 3 -16 -25 -29 -51 -25 -47 -44 9 -40 38 2 49 7 70 36 14 19 25 35 25 37 0 6 -60 33 -75 33 -8 0 -15 -6 -15 -13z"></path><path id="p12OWpKFya" d="M2263 1620 c2 -23 3 -24 48 -8 34 12 34 12 9 19 -45 13 -59 10 -57 -11z"></path><path id="p1A4JWFAHN" d="M935 1615 c-16 -8 -51 -14 -77 -13 -26 1 -54 -5 -63 -12 -10 -8 -19 -10 -25 -4 -6 6 -26 8 -46 6 -31 -4 -35 -7 -30 -26 3 -11 6 -31 6 -43 0 -21 4 -22 68 -21 52 2 76 -3 106 -20 26 -14 49 -19 65 -15 35 8 91 42 91 56 0 6 14 22 32 37 40 34 31 54 -21 45 -28 -5 -41 -2 -51 9 -15 19 -16 19 -55 1z m40 -75 c-28 -31 -54 -35 -76 -12 -22 25 -13 30 50 31 43 1 44 1 26 -19z"></path><path id="pWVWPjcJf" d="M420 1339 c0 -11 5 -17 10 -14 6 3 10 13 10 21 0 8 -4 14 -10 14 -5 0 -10 -9 -10 -21z"></path><path id="p5prcTyWY" d="M2100 1151 c-25 -3 -46 -10 -47 -16 -1 -5 -4 -17 -8 -26 -4 -11 0 -18 14 -22 12 -3 21 -13 21 -22 0 -13 -6 -16 -25 -11 -14 4 -25 2 -25 -4 0 -5 -9 -10 -20 -10 -28 0 -25 -13 6 -27 21 -10 28 -9 42 5 10 10 29 19 42 20 51 5 94 1 106 -9 11 -9 23 -6 63 19 3 1 -12 17 -31 35 -20 17 -41 42 -47 55 -7 12 -19 21 -29 20 -9 0 -37 -4 -62 -7z"></path><path id="p11OpoGWiR" d="M2483 1070 c-35 -14 -27 -27 19 -33 50 -7 53 -5 38 22 -12 23 -23 25 -57 11z"></path><path id="p3HDM84st" d="M2285 982 c-39 -8 -42 -42 -4 -42 11 0 17 -4 14 -10 -3 -5 -13 -10 -21 -10 -9 0 -22 -7 -30 -15 -12 -12 -20 -12 -36 -4 -14 8 -28 8 -42 1 -15 -7 -44 -6 -91 3 -56 11 -71 11 -80 1 -15 -20 -97 -38 -170 -40 -58 -1 -69 -6 -66 -28 0 -3 -12 -20 -28 -37 -29 -31 -82 -43 -96 -21 -7 11 -58 14 -68 4 -3 -3 0 -15 6 -26 10 -16 8 -22 -10 -36 l-22 -17 23 -27 c15 -16 40 -30 67 -35 45 -9 49 -16 35 -60 -6 -20 -4 -23 18 -23 14 0 36 5 50 11 19 9 29 9 39 1 7 -6 23 -9 35 -5 15 3 24 0 28 -11 3 -8 29 -32 56 -52 45 -32 56 -35 91 -30 30 5 44 2 58 -10 10 -9 39 -19 64 -22 25 -2 48 -8 51 -13 7 -12 96 1 115 17 20 18 29 18 44 -3 11 -15 16 -15 63 5 60 26 63 26 56 7 -5 -11 -2 -14 12 -9 11 4 24 10 29 15 22 16 60 14 75 -4 9 -11 28 -18 43 -18 15 1 39 1 55 1 15 1 36 5 47 10 80 37 99 41 108 25 6 -12 12 -13 22 -5 9 8 17 7 29 -5 12 -12 20 -13 35 -5 11 5 31 10 46 10 14 0 28 7 32 16 3 8 12 13 19 10 9 -4 14 2 14 18 0 16 13 31 45 51 53 34 76 82 48 100 -10 5 -36 10 -58 10 -36 0 -40 3 -43 28 -2 16 1 27 9 27 9 0 9 3 0 14 -10 12 -8 15 11 18 32 4 39 48 8 48 -13 0 -24 -8 -27 -20 -3 -11 -10 -21 -17 -21 -23 -3 -51 3 -60 12 -14 13 -40 11 -72 -6 -16 -8 -39 -15 -51 -15 -13 0 -34 -15 -52 -37 l-30 -37 3 39 c5 66 -28 81 -102 45 -55 -27 -62 -25 -62 10 0 20 -5 30 -15 30 -23 0 -18 17 8 24 12 3 32 14 44 23 20 16 20 20 8 37 -13 18 -18 18 -54 6 -53 -17 -107 -7 -115 23 -11 41 -84 72 -141 59z m57 -164 c4 -10 25 -18 55 -22 75 -11 101 -24 105 -54 3 -26 5 -27 66 -27 64 0 81 -10 37 -21 -21 -5 -25 -12 -25 -45 l0 -39 55 0 c72 0 115 19 145 63 27 40 60 49 60 18 0 -10 7 -21 15 -25 8 -3 23 -21 32 -41 15 -31 21 -35 54 -35 36 0 37 -1 26 -25 -7 -14 -18 -25 -24 -25 -7 0 -13 -7 -13 -15 0 -11 -11 -15 -40 -15 -29 0 -40 4 -40 15 0 21 -78 20 -102 -2 -10 -9 -47 -22 -83 -28 -60 -12 -65 -11 -78 8 -12 19 -17 19 -122 8 -61 -6 -130 -11 -155 -11 -25 0 -56 -7 -68 -16 -31 -21 -143 -10 -168 17 -12 13 -31 19 -62 19 -24 0 -60 7 -78 16 l-35 17 42 18 c22 11 47 19 54 19 16 0 25 22 25 64 0 43 -16 56 -66 56 -42 0 -55 -9 -101 -68 -14 -17 -32 -24 -75 -29 -57 -6 -58 -5 -58 20 0 16 -10 33 -26 46 l-27 21 28 0 c19 0 41 15 79 54 l52 54 64 -4 c66 -5 74 -2 134 40 27 19 27 19 48 -4 19 -20 28 -22 100 -18 58 4 86 10 105 24 25 19 28 19 43 4 9 -9 19 -23 22 -32z m-381 -173 c0 -5 -9 -11 -21 -13 -15 -3 -18 1 -14 13 7 17 35 17 35 0z"></path><path id="p3OgThmwb" d="M3336 739 c-10 -24 -25 -43 -36 -46 -28 -8 -25 -23 5 -23 16 0 25 -6 25 -15 0 -18 9 -19 33 -1 13 10 15 15 5 19 -10 4 -10 8 3 18 23 20 50 67 41 72 -4 2 -19 7 -33 11 -24 5 -29 2 -43 -35z"></path><path id="p721jxRCk" d="M1422 683 c-20 -14 -29 -15 -54 -5 -33 12 -40 10 -115 -25 -57 -27 -64 -43 -37 -82 10 -14 23 -21 35 -18 10 3 20 0 22 -7 3 -8 10 -8 28 1 13 6 45 14 71 18 25 3 52 13 58 20 14 17 50 20 50 5 0 -5 10 -10 22 -10 19 0 20 1 5 18 -8 9 -17 35 -19 57 -3 46 -27 56 -66 28z"></path><path id="pzEGysGID" d="M2310 159 c0 -18 2 -19 15 -9 15 12 12 30 -6 30 -5 0 -9 -10 -9 -21z"></path><path id="pGckHYJEy" d="M1983 144 c-8 -23 20 -47 46 -39 23 7 27 25 9 43 -17 17 -48 15 -55 -4z"></path><path id="p12EkMJfiz" d="M1918 105 c-6 -14 -8 -28 -4 -33 9 -8 36 26 36 45 0 22 -20 14 -32 -12z"></path><path id="p12mmHrz3k" d="M2360 74 c0 -9 9 -18 20 -21 12 -3 19 -11 17 -17 -3 -6 -11 -9 -18 -7 -8 2 -23 3 -33 3 -10 -1 -28 5 -38 13 -17 11 -25 11 -52 0 -22 -10 -44 -11 -72 -5 -103 21 -132 21 -149 -2 -8 -13 -15 -26 -15 -30 0 -10 407 -10 412 0 2 4 17 14 35 23 31 15 31 15 13 39 -15 20 -21 22 -34 11 -12 -10 -23 -11 -47 -2 -40 14 -39 14 -39 -5z"></path></g></g><g id="liIr36qce0xpIZbGd68R5f" fill="rgb(191,224,247)" style="transform: none;"><g><path id="ptvpQXy5t" d="M3365 2430 c11 -4 30 -6 42 -3 12 3 43 -3 67 -12 43 -16 47 -16 71 -1 14 9 25 19 25 21 0 3 -51 5 -112 4 -71 0 -105 -4 -93 -9z"></path><path id="peVDrAt9z" d="M1637 2422 c-9 -2 -17 -7 -17 -12 0 -12 37 -20 125 -27 68 -5 83 -3 94 11 8 9 11 20 7 23 -7 7 -177 11 -209 5z"></path><path id="pRhaQM2id" d="M826 2401 l-59 -17 27 -17 c14 -10 40 -20 57 -24 25 -5 35 -1 58 25 24 26 26 31 12 36 -9 3 -20 8 -26 10 -5 2 -36 -3 -69 -13z"></path><path id="pIdtGYQQH" d="M3765 2360 c-3 -5 -27 -10 -53 -10 -54 0 -92 -9 -92 -20 0 -15 39 -21 60 -10 17 9 27 8 45 -4 14 -9 33 -16 43 -16 19 0 52 38 52 60 0 13 -47 13 -55 0z"></path><path id="pzrcQorsK" d="M1792 2348 c-15 -5 -33 -6 -41 -3 -7 3 -50 -1 -95 -9 -107 -19 -185 -25 -192 -15 -7 12 -81 11 -89 -1 -3 -5 -15 -10 -26 -10 -12 0 -19 -5 -17 -12 3 -8 32 -16 69 -20 35 -3 84 -11 109 -17 25 -6 54 -11 66 -11 20 0 59 29 66 50 2 7 24 4 64 -9 48 -16 71 -19 113 -12 28 4 63 6 76 3 14 -2 38 4 56 16 31 19 33 20 74 2 41 -18 42 -18 95 9 29 14 53 31 52 36 -1 6 -26 9 -55 8 -63 -3 -75 -3 -200 0 -53 1 -110 -1 -125 -5z"></path><path id="p19YjIVZxi" d="M3857 2353 c-13 -12 -7 -23 13 -23 11 0 20 7 20 15 0 15 -21 21 -33 8z"></path><path id="p16K7lFo27" d="M2420 2326 c0 -28 78 -28 101 0 10 12 2 14 -45 14 -41 0 -56 -4 -56 -14z"></path><path id="pX55xNidw" d="M2567 2320 c-5 -20 -2 -21 41 -14 53 7 62 11 62 25 0 5 -22 9 -49 9 -41 0 -50 -3 -54 -20z"></path><path id="pxVfm7l81" d="M2953 2294 c-7 -3 -13 -12 -13 -20 0 -19 -41 -34 -90 -34 -21 0 -42 -4 -45 -10 -3 -5 -28 -10 -56 -10 -36 0 -49 -4 -49 -14 0 -9 9 -14 23 -14 12 1 49 1 82 0 l60 -2 -24 -19 c-13 -10 -21 -23 -17 -30 12 -19 36 -12 46 14 8 20 14 24 33 20 16 -4 40 3 76 24 55 33 101 40 101 17 0 -8 8 -17 17 -20 20 -8 106 10 146 30 16 8 38 14 50 14 29 0 51 15 43 29 -9 14 -152 15 -161 1 -9 -15 -88 -12 -112 5 -22 16 -91 28 -110 19z"></path><path id="pgFlqNyQp" d="M2813 2273 c9 -14 47 -24 47 -12 0 5 -4 9 -9 9 -5 0 -17 3 -27 7 -11 4 -15 3 -11 -4z"></path><path id="p1U85M8Yr" d="M3435 2240 c-18 -8 -17 -9 8 -9 16 -1 26 3 22 9 -3 6 -7 10 -8 9 -1 0 -11 -4 -22 -9z"></path><path id="p13POjBAEN" d="M3625 2210 c-21 -34 -174 -61 -350 -62 -62 -1 -175 12 -214 23 -24 7 -23 -19 1 -27 21 -8 20 -9 -11 -14 -37 -5 -56 -30 -23 -30 11 0 25 -7 32 -15 7 -8 19 -15 27 -15 7 0 24 -6 36 -14 19 -12 149 -46 176 -46 6 0 11 9 11 20 0 16 7 20 34 20 32 0 35 3 38 33 l3 32 108 8 c65 4 121 14 139 23 35 18 51 8 46 -27 -3 -21 -7 -23 -47 -20 -24 1 -47 -1 -50 -6 -12 -17 -117 -45 -188 -50 -53 -4 -73 -9 -73 -19 0 -15 9 -17 80 -17 65 1 118 11 172 35 39 17 50 19 63 8 9 -7 24 -10 37 -5 23 6 140 18 191 18 24 0 27 4 27 32 0 31 -2 33 -45 39 -25 4 -50 4 -56 1 -6 -4 -13 2 -16 14 -3 12 -11 21 -17 21 -7 0 -27 11 -46 25 -35 26 -74 33 -85 15z"></path><path id="p1FOs0I8T4" d="M118 2153 c-3 -4 -2 -21 1 -38 l6 -30 23 23 c13 13 21 29 19 35 -4 14 -43 22 -49 10z"></path><path id="p12QaLnbZZ" d="M1485 2149 c-11 -16 0 -21 57 -24 60 -4 69 0 61 20 -6 18 -108 21 -118 4z"></path><path id="pC3aa6IzY" d="M2902 2129 c3 -8 21 -15 44 -17 47 -4 36 14 -15 24 -26 6 -33 4 -29 -7z"></path><path id="pk1fon9Th" d="M2615 1923 c-62 -5 -69 -12 -46 -42 37 -48 171 -42 171 9 0 16 -8 20 -62 33 -7 2 -35 2 -63 0z"></path><path id="p1G5cZpXTl" d="M1361 1897 c-13 -6 -30 -22 -38 -33 -13 -20 -11 -24 20 -55 54 -55 81 -74 102 -75 11 -1 48 -7 81 -14 62 -13 62 -13 108 17 48 32 106 96 106 118 0 20 -47 38 -85 32 -21 -3 -53 0 -77 9 -50 17 -184 18 -217 1z m144 -40 l40 -11 -45 -7 c-92 -15 -136 -6 -111 25 13 16 37 14 116 -7z m144 -38 c-23 -33 -87 -55 -144 -49 -40 5 -45 7 -25 12 14 4 47 9 75 11 35 4 54 11 65 26 8 11 21 20 29 21 11 0 11 -3 0 -21z"></path><path id="pB5s1SCSL" d="M3094 1875 c-8 -20 4 -35 26 -35 28 0 32 14 9 33 -24 21 -28 21 -35 2z"></path><path id="pLGDaZWC5" d="M165 1625 c-44 -7 -93 -18 -110 -25 -16 -6 -31 -11 -32 -11 -16 5 -23 -4 -23 -29 0 -29 1 -30 50 -30 44 0 50 -2 50 -21 0 -20 -4 -21 -51 -15 l-50 7 3 -28 c3 -26 6 -28 41 -25 21 2 65 -6 98 -17 69 -24 147 -28 155 -7 3 9 25 14 67 14 114 2 122 3 145 8 15 3 22 12 22 29 0 13 -4 26 -9 29 -5 3 -7 14 -4 24 7 30 -18 44 -55 30 -28 -11 -34 -10 -58 12 -14 14 -30 35 -35 48 -8 19 -15 22 -66 21 -32 -1 -94 -7 -138 -14z m155 -49 c0 -7 6 -19 14 -25 8 -6 16 -23 19 -36 4 -24 2 -25 -40 -25 -30 0 -45 -5 -49 -15 -4 -9 -19 -15 -38 -15 l-31 1 28 22 c20 17 27 32 27 59 0 26 5 38 18 41 34 9 52 7 52 -7z"></path><path id="pjxkJfp7w" d="M2155 1580 l-30 -20 31 0 c29 0 54 15 54 32 0 14 -24 9 -55 -12z"></path><path id="pOgxHTg2T" d="M845 1581 c-99 -20 -146 -65 -57 -54 44 5 50 3 79 -27 27 -28 35 -31 67 -25 41 8 86 40 86 60 0 8 9 19 20 25 40 22 19 30 -72 29 -51 -1 -106 -4 -123 -8z"></path><path id="pmlZlSSvm" d="M2099 1120 l-24 -20 25 -20 c27 -21 75 -27 85 -9 4 5 1 23 -5 40 -15 35 -46 39 -81 9z"></path><path id="p18LveuwKg" d="M2285 970 c-19 -7 -19 -7 3 -14 12 -4 22 -11 22 -16 0 -4 10 -8 23 -8 12 0 32 -3 45 -7 16 -6 22 -3 22 8 0 28 -75 52 -115 37z"></path><path id="p1DcNAOTB5" d="M2295 906 c-11 -6 -32 -19 -46 -29 -15 -10 -49 -20 -77 -24 -45 -5 -52 -3 -73 21 -30 34 -66 33 -110 -3 -43 -36 -84 -48 -104 -31 -30 25 -85 2 -142 -57 -44 -45 -57 -54 -76 -48 -63 19 -65 19 -72 -18 -8 -42 0 -60 24 -52 30 9 71 -31 71 -70 0 -33 1 -34 25 -25 14 5 42 9 63 8 20 -1 45 2 55 6 14 7 17 3 17 -17 0 -42 67 -80 141 -79 24 1 43 -6 55 -19 10 -11 30 -19 48 -19 17 0 43 -6 57 -14 17 -9 32 -10 43 -4 9 5 24 8 34 6 9 -1 28 5 42 15 27 19 60 23 60 7 0 -12 32 -13 45 -1 15 13 73 21 77 11 2 -5 22 -3 47 6 44 15 45 15 65 -11 19 -22 25 -24 53 -16 18 5 41 7 51 4 11 -2 23 0 26 6 4 6 18 11 30 11 13 0 35 9 49 20 32 25 47 25 40 1 -4 -16 -1 -19 16 -14 13 3 23 0 27 -11 5 -14 9 -14 36 0 16 8 37 13 45 10 9 -4 17 1 20 14 3 11 12 20 19 20 8 0 14 6 14 14 0 8 19 27 43 43 29 20 43 37 45 56 5 39 -20 44 -84 17 -30 -12 -56 -21 -58 -19 -2 2 -11 19 -20 37 -9 18 -24 36 -32 39 -21 8 -17 20 8 27 22 5 22 6 5 23 -13 14 -21 15 -35 7 -9 -6 -31 -9 -47 -7 -27 4 -35 -1 -63 -41 -18 -25 -37 -47 -43 -47 -5 -1 -13 -2 -18 -3 -5 0 -13 -4 -17 -8 -10 -10 -64 -10 -64 0 0 4 14 13 30 19 20 8 28 16 24 26 -3 8 -1 18 5 22 6 3 11 20 11 37 0 25 -3 29 -17 23 -99 -42 -140 -44 -128 -6 8 26 -30 46 -102 56 -29 4 -56 11 -59 17 -10 15 17 29 49 25 15 -2 30 0 33 4 8 13 -63 22 -83 11 -14 -9 -22 -6 -38 12 -17 20 -23 21 -40 12z m-135 -131 c36 -4 71 -1 100 8 25 7 56 10 70 6 14 -4 45 -7 70 -8 51 -1 90 -23 90 -50 0 -11 7 -21 15 -25 10 -3 15 -19 15 -45 0 -31 4 -41 20 -46 13 -4 20 -15 20 -31 0 -21 5 -24 35 -24 22 0 43 8 55 20 11 11 28 20 39 20 31 0 81 21 81 34 0 7 9 21 19 30 19 17 21 17 45 -1 13 -10 31 -33 40 -51 11 -23 25 -34 46 -38 36 -8 37 -12 6 -41 -31 -30 -46 -29 -46 2 0 23 -4 25 -41 25 -39 0 -78 -14 -90 -32 -8 -12 -74 -27 -116 -28 -24 0 -33 5 -33 16 0 13 -9 15 -57 10 -32 -4 -108 -10 -168 -14 -81 -5 -118 -12 -139 -25 -24 -16 -34 -17 -77 -7 -27 7 -49 16 -49 20 0 8 -22 15 -120 34 -72 14 -64 20 43 31 54 6 58 9 77 45 11 22 20 59 20 85 0 44 -1 45 -33 45 -18 0 -38 -5 -45 -12 -8 -8 -37 -11 -81 -10 -68 3 -70 3 -94 -30 -31 -40 -86 -71 -117 -66 -38 5 -34 22 19 80 47 52 54 56 104 60 30 2 76 15 103 29 48 24 50 24 84 8 19 -9 60 -20 90 -24z m-181 -109 c17 -21 5 -40 -37 -54 -82 -28 -78 -29 -52 9 41 58 67 71 89 45z"></path><path id="pmmayeIyA" d="M2513 883 c-21 -4 -31 -31 -17 -45 7 -7 67 14 76 27 18 24 1 30 -59 18z"></path><path id="pOE18ijcY" d="M3339 725 c-16 -33 -15 -35 2 -35 25 0 64 51 47 62 -23 14 -33 8 -49 -27z"></path><path id="p1D7ZfWBam" d="M1295 645 c-16 -8 -38 -16 -47 -19 -29 -9 -21 -22 21 -34 46 -14 85 -15 109 -3 9 6 29 12 44 16 15 3 33 15 39 26 12 23 8 23 -74 3 -19 -4 -33 -2 -45 9 -14 12 -21 13 -47 2z"></path><path id="pI0y5DCFR" d="M2056 21 c-3 -5 1 -12 10 -15 25 -10 159 -7 149 3 -14 12 -153 23 -159 12z"></path></g></g><g id="l5hB3dJnPWY5ur69qcwsc8w" fill="rgb(204,229,246)" style="transform: none;"><g><path id="py5hy2rlu" d="M840 2398 c-54 -15 -58 -26 -16 -43 43 -18 76 -12 76 14 0 29 -21 39 -60 29z"></path><path id="pHsOofuYK" d="M1650 2400 c36 -12 110 -12 110 0 0 6 -29 10 -67 9 -50 -1 -61 -3 -43 -9z"></path><path id="p1DflEqrSo" d="M1935 2333 c-27 -8 -56 -14 -62 -13 -7 0 -25 1 -40 1 -16 -1 -59 0 -96 0 -78 0 -81 -11 -10 -34 46 -15 122 -11 140 7 3 3 12 1 18 -4 13 -11 33 -5 83 24 21 12 29 24 20 30 -1 2 -25 -3 -53 -11z"></path><path id="p17l0iU50z" d="M2055 2328 l-40 -22 33 -9 c27 -8 38 -7 59 9 54 41 14 58 -52 22z"></path><path id="p16g9obDq5" d="M3860 2340 c0 -5 7 -10 15 -10 8 0 15 5 15 10 0 6 -7 10 -15 10 -8 0 -15 -4 -15 -10z"></path><path id="pGJfADk3S" d="M2580 2320 c0 -5 7 -10 15 -10 8 0 15 5 15 10 0 6 -7 10 -15 10 -8 0 -15 -4 -15 -10z"></path><path id="p47TAZxYJ" d="M3741 2321 c-11 -7 -9 -10 9 -16 15 -5 28 -2 38 9 15 15 14 16 -8 16 -14 0 -31 -4 -39 -9z"></path><path id="pLsWrwgdH" d="M1493 2298 c-2 -5 -13 -8 -24 -8 -44 0 -14 -18 48 -28 72 -12 107 -3 101 26 -3 13 -15 17 -62 17 -32 0 -60 -3 -63 -7z"></path><path id="pf9Vm86L1" d="M1360 2290 c0 -5 11 -10 25 -10 14 0 25 5 25 10 0 6 -11 10 -25 10 -14 0 -25 -4 -25 -10z"></path><path id="p17kqDxUVm" d="M3190 2255 c-24 -8 -46 -12 -48 -10 -9 9 -42 -16 -42 -31 0 -14 8 -15 47 -9 26 4 64 15 85 26 20 10 46 19 57 19 11 0 23 5 26 10 9 15 -72 11 -125 -5z"></path><path id="p3gbgjV74" d="M2865 2218 c-17 -10 -16 -12 20 -25 36 -12 41 -12 52 4 7 9 13 20 13 25 0 12 -62 9 -85 -4z"></path><path id="p17nevbxAJ" d="M3614 2184 c-32 -19 -62 -25 -150 -31 l-109 -8 -3 -30 c-3 -29 -5 -30 -58 -32 -60 -3 -114 17 -114 42 0 23 -47 19 -53 -5 -3 -14 -14 -20 -31 -20 -16 0 -26 -6 -26 -15 0 -8 8 -15 18 -15 10 0 22 -4 28 -9 13 -13 175 -51 218 -51 20 0 36 5 36 10 0 14 57 13 62 -1 5 -15 93 4 152 32 37 17 40 18 51 2 12 -16 15 -16 49 2 29 16 38 17 45 7 7 -11 19 -10 69 2 33 9 67 13 76 10 12 -5 16 0 16 19 0 20 -6 26 -32 30 -38 5 -68 -7 -68 -29 0 -21 -49 -13 -66 11 -12 16 -12 21 1 35 13 14 10 19 -20 43 -40 32 -38 32 -91 1z"></path><path id="pHGajBaEv" d="M2660 1896 c0 -8 5 -18 10 -21 13 -8 42 14 34 26 -9 15 -44 10 -44 -5z"></path><path id="pigOG3dQk" d="M1486 1892 c-3 -5 8 -12 25 -16 45 -9 65 -8 54 3 -15 14 -72 23 -79 13z"></path><path id="p45R40OFY" d="M1590 1849 c-13 -18 -32 -23 -118 -32 -56 -5 -102 -14 -102 -18 0 -5 5 -9 10 -9 6 0 20 -11 32 -25 15 -18 32 -25 57 -25 20 0 53 -5 74 -11 30 -8 40 -7 52 5 8 8 25 18 38 21 29 9 88 75 85 95 -2 11 -18 16 -58 17 -46 2 -57 -1 -70 -18z"></path><path id="pLGLzJuVk" d="M255 1615 c-27 -7 -70 -16 -95 -20 -25 -4 -57 -14 -72 -21 -15 -8 -41 -14 -58 -14 -31 0 -31 0 -28 -47 l3 -48 70 -12 c39 -6 79 -14 90 -16 11 -3 43 -8 71 -11 45 -4 53 -2 57 15 6 21 31 24 72 9 21 -8 36 -5 75 13 56 25 61 34 25 42 -14 3 -36 7 -50 10 -14 3 -28 13 -31 23 -3 9 -10 24 -15 32 -5 8 -12 22 -16 30 -14 33 -26 35 -98 15z m-47 -73 c14 -10 -37 -52 -63 -52 -15 0 -22 40 -8 53 9 9 55 8 71 -1z"></path><path id="pj0dC93y9" d="M920 1552 c-38 -18 -53 -58 -26 -68 43 -17 141 54 105 77 -21 13 -40 11 -79 -9z"></path><path id="poys2Vuc5" d="M2126 1108 c-15 -8 -16 -12 -5 -19 20 -12 26 -11 32 6 8 20 -4 26 -27 13z"></path><path id="p3OsQQjQY" d="M2020 855 c-74 -43 -118 -59 -160 -58 -40 2 -50 -3 -88 -40 -68 -66 -83 -96 -71 -140 l10 -36 52 3 c60 3 112 31 146 76 22 30 24 31 81 24 47 -5 65 -3 85 10 22 15 25 15 25 1 0 -9 -9 -33 -20 -55 -19 -36 -23 -39 -77 -45 -81 -9 -95 -12 -118 -29 -19 -14 -19 -15 -2 -34 11 -12 38 -22 70 -26 61 -9 127 -28 127 -38 0 -4 16 -10 35 -14 19 -3 38 -10 41 -15 8 -13 70 -1 123 24 36 16 47 18 63 8 13 -8 24 -9 31 -2 7 5 41 11 77 14 36 3 76 8 90 12 20 5 27 2 35 -17 7 -15 17 -22 30 -19 11 1 36 5 55 7 52 5 112 21 119 32 8 12 46 32 62 32 8 0 5 -8 -6 -20 -10 -11 -16 -21 -14 -23 32 -22 61 -29 71 -19 7 7 18 12 26 12 17 0 62 40 62 56 0 6 18 20 40 33 70 39 42 77 -37 48 -42 -16 -45 -15 -63 3 -11 11 -20 24 -20 30 0 14 -51 60 -79 71 -20 8 -29 5 -53 -18 -15 -14 -28 -32 -28 -39 0 -13 -51 -34 -81 -34 -11 0 -28 -9 -39 -20 -26 -26 -30 -25 -30 4 0 16 -7 27 -20 31 -22 7 -28 34 -7 36 6 1 23 3 36 4 13 1 32 13 42 26 32 41 22 49 -36 28 -42 -15 -85 -5 -85 21 0 27 -38 50 -83 50 -21 0 -59 5 -84 12 -36 9 -57 8 -97 -2 -28 -7 -66 -12 -85 -11 -38 2 -92 27 -104 47 -10 17 -16 17 -47 -1z m53 -85 c-12 -5 -26 -17 -32 -28 -8 -16 -19 -18 -70 -14 -64 5 -111 -13 -111 -42 0 -16 -72 -66 -95 -66 -23 0 -19 8 34 61 30 30 58 49 72 49 13 0 44 11 69 25 32 16 61 24 100 24 41 0 50 -2 33 -9z m263 -1 c4 -7 24 -9 53 -6 46 5 81 -5 81 -23 0 -6 -24 -10 -54 -10 -59 0 -66 -7 -66 -64 0 -46 29 -66 93 -66 45 0 53 -3 63 -25 14 -29 10 -31 -81 -40 -91 -10 -166 -25 -203 -43 -31 -14 -36 -14 -65 3 -16 10 -49 24 -71 31 -34 11 -37 13 -14 13 37 1 58 11 58 27 0 8 5 14 10 14 6 0 10 8 10 18 0 11 9 29 20 42 26 30 28 97 3 103 -10 2 5 7 32 11 28 4 59 11 70 16 28 12 53 12 61 -1z m424 -196 c0 -34 -30 -53 -86 -53 -29 0 -56 5 -59 10 -3 6 5 10 19 10 14 0 31 8 38 19 22 31 88 41 88 14z"></path></g></g><g id="l1fKnsXLaAatZmUM872bUju" fill="rgb(217,238,249)" style="transform: none;"><g><path id="p1HUGnHTns" d="M2060 2310 c-9 -16 -8 -20 5 -20 9 0 18 7 21 15 4 8 10 12 15 9 5 -3 9 0 9 5 0 19 -39 12 -50 -9z"></path><path id="p5dyTNfSc" d="M1770 2301 c-41 -6 -43 -7 -20 -16 37 -13 116 -2 105 15 -7 11 -14 11 -85 1z"></path><path id="pJarUGaQG" d="M1559 2274 c-11 -14 -9 -15 16 -12 16 1 30 9 33 16 6 18 -33 15 -49 -4z"></path><path id="pqnf6THgC" d="M3580 2150 c-21 -11 -45 -16 -59 -13 -17 4 -22 2 -19 -8 5 -14 106 -35 116 -24 9 8 12 65 4 65 -4 -1 -23 -9 -42 -20z"></path><path id="pUUrNvhQv" d="M3640 2110 c0 -5 7 -10 15 -10 8 0 15 5 15 10 0 6 -7 10 -15 10 -8 0 -15 -4 -15 -10z"></path><path id="p1e8DMKB7" d="M3134 2089 c-3 -5 -2 -9 3 -9 4 0 1 -4 -7 -10 -34 -21 106 -51 257 -53 56 -1 105 2 109 6 14 14 -13 42 -36 39 -13 -1 -32 6 -42 15 -19 17 -21 17 -32 1 -11 -14 -25 -16 -87 -12 -41 3 -83 9 -94 14 -35 15 -65 18 -71 9z"></path><path id="pjFBsW2nU" d="M3645 2079 c-10 -15 3 -25 16 -12 7 7 7 13 1 17 -6 3 -14 1 -17 -5z"></path><path id="pRyZlyQ0w" d="M3520 2060 c0 -19 31 -23 48 -6 15 15 14 16 -16 16 -18 0 -32 -5 -32 -10z"></path><path id="pgJOczOKI" d="M1610 1838 c-11 -12 -20 -19 -20 -15 0 4 -9 3 -20 -3 -11 -6 -17 -16 -14 -25 4 -10 0 -15 -15 -15 -12 0 -24 7 -27 15 -9 22 -40 18 -64 -7 -11 -12 -18 -24 -15 -26 2 -3 42 -7 88 -9 87 -5 147 11 147 41 0 7 9 21 20 31 25 23 17 35 -25 35 -22 0 -41 -8 -55 -22z"></path><path id="ptKLDTIuf" d="M250 1488 c0 -7 5 -20 10 -28 8 -13 12 -13 27 3 16 15 16 19 3 27 -21 14 -40 12 -40 -2z"></path><path id="pGSpaDWJk" d="M2019 819 c-8 -5 -24 -9 -36 -9 -12 0 -44 -11 -71 -25 -28 -14 -60 -25 -72 -25 -12 0 -38 -16 -57 -35 -19 -19 -40 -35 -46 -35 -6 0 -7 -3 -4 -7 4 -3 0 -11 -9 -17 -19 -14 -25 -47 -11 -63 17 -23 94 -15 137 13 22 15 40 33 40 40 0 29 43 45 104 38 55 -6 59 -5 80 20 19 25 23 26 42 12 20 -14 42 -62 24 -51 -5 3 -12 -10 -16 -30 -3 -19 -10 -35 -15 -35 -5 0 -9 -6 -9 -14 0 -20 -23 -26 -98 -26 -80 0 -112 -8 -112 -26 0 -14 3 -15 119 -39 40 -8 90 -24 110 -36 38 -22 103 -28 125 -10 19 16 135 40 209 44 36 1 69 6 73 10 13 13 43 7 56 -11 10 -13 26 -17 68 -16 95 1 104 4 144 38 36 31 38 35 24 55 -8 11 -17 19 -19 16 -3 -2 -5 13 -4 33 0 25 4 36 13 34 8 -1 11 2 7 8 -3 5 -1 10 6 10 10 0 10 3 1 12 -9 9 -18 9 -37 0 -22 -10 -30 -28 -26 -54 0 -5 -2 -8 -6 -9 -5 0 -15 -2 -23 -4 -8 -2 -28 -6 -43 -8 -15 -3 -36 -15 -45 -27 -15 -18 -24 -21 -54 -15 -21 4 -43 14 -50 23 -10 12 -10 14 0 8 7 -4 12 -2 12 7 0 8 -6 17 -14 20 -7 3 -15 14 -18 25 -4 15 2 22 29 31 32 12 33 14 16 27 -10 7 -26 14 -35 14 -10 0 -20 11 -24 25 -10 41 -75 66 -115 44 -11 -6 -20 -6 -24 1 -8 13 -91 13 -114 0 -25 -13 -90 -14 -126 -2 -76 25 -94 29 -106 21z m431 -139 c0 -13 1 -13 10 0 5 8 10 13 11 10 0 -3 2 -13 4 -23 2 -10 -1 -14 -8 -10 -7 4 -8 0 -3 -13 6 -15 5 -17 -5 -6 -7 6 -25 12 -40 12 -31 0 -42 11 -34 33 8 19 65 17 65 -3z"></path><path id="pZlbX9S16" d="M2855 590 c-4 -6 -1 -17 5 -26 8 -8 10 -28 7 -48 -7 -46 0 -50 39 -21 18 14 37 25 43 25 6 0 11 7 11 16 0 9 8 23 18 30 15 11 11 12 -24 7 -29 -4 -45 -1 -56 10 -12 12 -18 13 -28 4 -10 -9 -11 -9 -6 1 9 15 0 16 -9 2z"></path></g></g></svg>