<svg class="img-fluid" id="outputsvg" xmlns="http://www.w3.org/2000/svg" style="transform: none; transform-origin: 50% 50%; cursor: move;" width="1000" height="1000" viewBox="0 0 10000 10000"><g id="l5QbhNOqQccjjruuqLQbADd" fill="rgb(255,255,255)" style="transform: none;"><g><path id="ph2leZEBS" d="M0 5000 l0 -5000 5000 0 5000 0 0 5000 0 5000 -5000 0 -5000 0 0 -5000z m2245 841 l50 -6 -50 -19 c-65 -25 -110 -68 -129 -124 -21 -61 -38 -437 -34 -752 l3 -245 260 -6 c370 -9 495 -36 625 -135 147 -112 240 -247 287 -414 77 -280 13 -536 -181 -718 -68 -63 -126 -95 -248 -136 -68 -23 -99 -26 -349 -36 -151 -6 -402 -10 -559 -8 l-285 3 34 20 c108 65 127 86 141 165 6 34 9 270 8 620 l-3 565 -50 3 c-74 5 -325 -16 -400 -33 -175 -41 -278 -138 -314 -296 -17 -73 -13 -264 9 -394 53 -318 -7 -534 -180 -645 -59 -38 -197 -93 -210 -85 -6 4 -10 28 -10 55 l0 49 43 12 c112 29 177 92 198 191 14 63 6 215 -17 308 -61 258 -74 393 -50 503 33 146 100 242 231 327 113 74 160 82 483 87 l282 5 -1 297 c0 163 -4 382 -8 487 -7 180 -9 193 -33 235 -30 52 -49 69 -102 97 l-39 21 89 4 c169 6 459 5 509 -2z m1230 -63 c89 -26 142 -57 195 -114 71 -78 100 -175 76 -258 -37 -127 -140 -189 -405 -242 -238 -48 -259 -61 -268 -162 -10 -110 46 -169 172 -180 122 -9 204 28 247 112 11 22 22 43 24 44 1 2 39 -4 83 -13 l80 -18 -24 -46 c-67 -133 -236 -220 -405 -208 -266 18 -442 235 -346 425 53 105 150 152 419 202 127 25 186 48 216 86 20 25 22 38 19 101 -3 63 -7 76 -32 102 -41 43 -103 61 -210 61 -99 -1 -146 -13 -205 -54 -37 -26 -91 -108 -91 -138 0 -12 -12 -12 -85 1 -51 9 -85 19 -85 26 0 29 43 106 84 152 119 132 337 181 541 121z m4130 10 c172 -37 318 -164 375 -326 27 -76 26 -77 -68 -87 -36 -4 -71 -9 -77 -11 -6 -3 -16 16 -24 46 -15 58 -73 141 -122 174 -64 43 -132 59 -238 54 -86 -3 -106 -8 -164 -36 -83 -41 -129 -98 -158 -194 -18 -59 -21 -87 -17 -191 7 -154 23 -202 98 -278 66 -67 116 -84 240 -84 73 0 93 4 141 28 62 30 123 104 135 165 4 17 8 32 11 32 2 0 41 -9 87 -21 83 -21 84 -21 76 -48 -40 -142 -196 -277 -358 -310 -172 -35 -352 19 -475 142 -73 74 -108 134 -138 242 -96 339 110 662 455 715 58 9 147 4 221 -12z m-3195 -212 l0 -195 63 -118 c193 -360 279 -524 276 -528 -4 -4 -92 -7 -150 -6 -35 1 -38 4 -64 64 -15 34 -61 131 -101 214 -40 84 -75 162 -79 173 -5 15 -15 20 -43 20 l-37 0 -118 -235 -117 -235 -91 0 c-80 0 -90 2 -85 16 4 9 83 157 176 329 l170 313 0 191 0 191 100 0 100 0 0 -194z m1230 119 l0 -75 -265 0 -265 0 0 -160 0 -160 225 0 225 0 6 -23 c3 -13 4 -41 2 -63 l-3 -39 -227 -3 -228 -2 0 -145 0 -145 258 -2 257 -3 3 -72 3 -73 -173 -2 c-95 -2 -257 -2 -360 0 l-188 3 0 519 0 520 365 0 365 0 0 -75z m338 -313 l2 -383 35 3 c35 3 36 4 253 383 l218 380 127 3 127 3 0 -521 0 -520 -95 0 -95 0 0 385 0 385 -37 -1 -38 0 -218 -385 -218 -384 -125 0 -124 0 0 520 0 521 93 -3 92 -3 3 -383z m2380 -134 l2 -518 -105 0 -105 0 0 520 0 521 103 -3 102 -3 3 -517z m369 410 l34 -108 242 0 243 0 35 108 35 107 97 3 c53 1 97 0 97 -4 0 -4 -32 -95 -71 -203 -39 -108 -120 -331 -179 -496 -59 -165 -111 -308 -115 -317 -6 -16 -23 -18 -140 -18 l-132 0 -16 43 c-49 128 -357 983 -357 990 0 4 43 6 96 5 l96 -3 35 -107z"></path><path id="ptB4KNDh5" d="M2087 4498 c-11 -190 -8 -1141 3 -1158 8 -12 46 -16 217 -18 230 -4 286 3 403 49 231 92 318 305 289 704 -14 200 -62 321 -161 410 -117 105 -249 135 -594 135 l-151 0 -6 -122z"></path><path id="pbY9P9Ce2" d="M8817 5423 c-16 -16 -2 -72 74 -300 l81 -243 33 0 33 0 81 243 c45 133 81 254 81 268 0 19 -6 28 -22 33 -31 8 -353 8 -361 -1z"></path></g></g><g id="lgrqFgo4JSWqUQtYjk7WFN" fill="rgb(0,11,108)" style="transform: none;"><g><path id="p8txgKo8l" d="M3195 5829 c-78 -12 -118 -25 -188 -62 -101 -53 -186 -170 -190 -262 l-2 -39 90 -17 c117 -23 145 -23 145 -3 0 32 53 114 91 140 54 37 105 53 175 54 121 0 202 -50 211 -132 9 -83 -49 -122 -234 -158 -129 -24 -244 -55 -287 -77 -106 -54 -158 -136 -160 -248 -2 -165 75 -272 244 -336 68 -26 230 -37 310 -20 155 32 298 159 311 276 l4 30 -98 22 c-55 12 -105 24 -113 27 -9 3 -20 -11 -34 -42 -30 -67 -66 -100 -128 -118 -127 -37 -258 40 -237 139 16 72 47 87 266 131 202 41 295 80 354 149 91 107 82 292 -21 406 -53 59 -107 92 -195 119 -79 24 -230 35 -314 21z"></path><path id="pBJIwOPbr" d="M7354 5831 c-187 -30 -342 -138 -416 -292 -49 -101 -63 -165 -63 -294 1 -187 50 -320 162 -432 102 -103 232 -153 396 -153 111 0 175 14 264 57 119 58 211 171 242 297 7 27 11 49 9 51 -11 8 -229 56 -236 51 -5 -3 -12 -20 -16 -38 -3 -18 -22 -57 -42 -85 -65 -94 -181 -129 -309 -93 -38 10 -64 28 -105 69 -68 69 -90 125 -97 247 -10 172 49 294 172 355 114 56 245 49 344 -17 49 -33 107 -116 122 -174 11 -44 16 -50 38 -50 37 0 212 28 219 34 8 8 -24 127 -47 177 -66 136 -195 239 -352 277 -62 15 -223 23 -285 13z"></path><path id="pEQESUJNu" d="M4180 5609 l0 -191 -191 -351 c-105 -193 -191 -356 -192 -361 -2 -11 231 -16 259 -5 12 4 61 92 134 238 63 127 118 231 122 231 4 0 10 -9 13 -20 4 -11 37 -84 74 -163 38 -78 84 -176 103 -218 l35 -75 136 0 c94 0 137 3 137 11 0 6 -32 72 -71 146 -40 74 -123 230 -185 348 l-114 214 0 193 0 194 -130 0 -130 0 0 -191z"></path><path id="pL865PIbo" d="M4882 5248 l3 -553 385 0 385 0 0 105 0 105 -257 3 -258 2 0 115 0 115 228 2 227 3 3 70 c2 38 0 80 -3 92 l-5 23 -225 0 -225 0 0 130 0 130 265 0 265 0 0 105 0 105 -395 0 -395 0 2 -552z"></path><path id="pJepjNBSq" d="M5759 5796 c-2 -2 -3 -251 -1 -553 l2 -548 73 1 c39 0 109 1 154 2 l82 2 218 384 c120 212 221 385 225 385 4 1 9 -173 10 -386 l3 -388 120 0 120 0 3 553 2 553 -157 -3 -157 -3 -221 -384 -220 -385 -5 385 -5 384 -121 3 c-66 1 -122 1 -125 -2z"></path><path id="pTaf8QJ37" d="M8122 5249 l3 -551 82 -2 c46 -2 105 -1 133 2 l50 5 -2 546 -3 546 -133 3 -132 3 2 -552z"></path><path id="pdKpn0xdr" d="M8450 5790 c0 -11 378 -1057 390 -1079 6 -12 39 -15 165 -15 141 -1 158 1 167 17 5 10 49 129 98 265 48 136 134 372 189 526 56 153 101 282 101 287 0 6 -58 8 -137 7 l-137 -3 -35 -107 -35 -108 -213 0 -212 0 -34 108 -35 107 -136 3 c-86 2 -136 -1 -136 -8z m696 -396 c21 -6 20 -12 -57 -241 -43 -130 -80 -238 -83 -240 -2 -2 -40 104 -84 236 -44 132 -77 242 -74 245 7 8 271 7 298 0z"></path></g></g><g id="lC6vodQWMpGrLsWCFFNImU" fill="rgb(111,147,255)" style="transform: none;"><g><path id="p1FE1CCxnJ" d="M1688 5873 c-75 -3 -108 -7 -111 -17 -8 -20 3 -31 63 -60 68 -34 85 -49 118 -106 25 -42 27 -54 32 -215 3 -93 7 -299 8 -456 l3 -287 -283 -5 c-323 -5 -370 -13 -483 -87 -254 -165 -298 -381 -181 -890 59 -259 5 -390 -182 -440 l-43 -11 3 -82 3 -82 34 -3 c45 -5 165 40 239 88 96 62 156 153 187 284 21 89 19 277 -5 421 -22 130 -25 264 -9 334 36 158 139 255 315 296 75 17 355 41 379 31 14 -5 16 -61 13 -573 -2 -442 -6 -575 -16 -598 -18 -42 -50 -73 -97 -97 -60 -30 -107 -78 -94 -95 14 -17 604 -18 964 -2 257 11 304 20 442 86 114 53 253 216 293 344 79 248 35 573 -103 754 -76 98 -193 203 -262 234 -121 55 -243 72 -540 80 l-260 6 -3 215 c-4 287 13 665 34 722 18 51 66 104 103 113 40 10 111 54 111 69 0 8 -8 17 -17 21 -20 9 -486 14 -655 8z m787 -1293 c165 -16 244 -45 333 -125 97 -87 148 -212 160 -395 25 -370 -62 -569 -288 -659 -114 -45 -175 -53 -373 -49 -145 2 -180 6 -187 18 -11 17 -14 909 -3 1098 l6 122 121 0 c67 0 171 -5 231 -10z"></path></g></g></svg>